<svg height="1206.588" viewBox="0 0 1221.672 1206.588" width="1221.672" xmlns="http://www.w3.org/2000/svg"><path d="m598.338 1204.371c-3.708-4.022-7.009-8.272-11.011-12.114-4.889-4.692-12.487-3.635-18.651-5.916-15.888-5.882-21.356-18.817-22.296-34.705-.14-2.368 1.695-19.515-.203-20.242-2.611-1-15.804 7.965-19.137 9.181-10.641 3.879-27.038 7.809-33.27 17.875-3.519 5.682 4.619 18.736 3.001 19.865-4.956 3.457-13.68 1.004-18.128-1.896-12.833-8.369-19.958-25.217-13.814-40.439 1.606-3.987 2.647-13.135 6.616-15.587 2.685-1.661 10.466-11.938 8.006-14.19-13.36-12.222-23.055-20.344-25.123-39.596-1.056-9.824-1.699-22.519 2.144-31.736 3.091-7.409 10.083-39.634-9.035-24.64-2.421 1.896-11.301 12.842-13.12 11.203-4.499-4.05 3.591-14.008 3.591-18.313 0-3.351 8.766-10.939 11.241-12.613 5.312-3.594 11.448-4.625 17.621-6.275 35.562-9.506 24.104 51.825 56.103 53.354 27.794 1.33 31.552-51.146 35.981-68.444 5.067-19.783-4.139-15.241-17.954-20.734-11.396-4.532-26.03-15.288-20.343-30.057 3.832-9.945 12.967-26.887 25.728-26.967 18.295-.119 3.398-25.686.811-33.365-4.464-13.26-7.125-31.392-13.759-44.224-2.587-5.003-19.244-4.848-23-9-7.108-7.854-18.136 12.858-20.977 18.094-4.104 7.555 1.962 19.097-1.82 26.921-4.255 8.805-22.806-15.918-24.182-19.085-1.01-2.32-3.46-14.878-7.459-11.047-2.66 2.548-2.085 5.375-3.973 8.16-2.47 3.646-6.485 5.532-9.22 8.837-4.219 5.098-9.565 11.896-13.429 17.359-2.028 2.869-2.161 5.779-5.063 8.252-3.112 2.651-10.287 3.588-10.287 8.611 0 4.326-19.263 29.436-12.966 31.249 13.229 3.814 23.769 2.854 36.756-2.859 11.998-5.278 24.292-3.472 31.503 6.513 4.094 5.664 13.147 5.527 18.413 10.494 3.995 3.768 7.228 10.249 7.228 15.63 0 10.625-1.665 20.439-11.577 26.783-2.714 1.734-11.965 4.751-11.228-1.514.99-8.396 5.463-15.881-4.721-20.827-8.763-4.258-10.853 4.732-18.848 5.694-8.036.964-13.624 1.162-21.675-1.201-10.987-3.224-20.708-7.025-32.307-4.877-12.44 2.307-11.874 20.275-17.729 28.731-6.708 9.695-5.108 32.172-5.356 43.405-.189 8.625-1.157 19.803-12.103 21.995-10.479 2.091-16.89 27.432-9.556 34.28 3.096 2.892 19.527 3.913 11.395 9.414-7.008 4.74-13.865.438-20.919-.913-12.673-2.424-27.356-20.474-20.585-33.826 3.988-7.86 1.715-8.377-1.334-14.921-3.676-7.892.057-12.596 2.96-19.627 3.425-8.315 14.713-19.048 14.713-28.284 0-5.524 6.299-12.988 7.555-18.742 1.988-9.104-10.729 1.816-13.463 1.822-12.126.021-22.179 18.088-27.729 26.17-7.421 10.825-12.341 16.559-25.677 9.698-5.271-2.715-12.535 3.954-13.468 8.98-1.906 10.265 12.21 12.602 12.39 19.273.28 10.465-29.239-.676-31.474-8.955-1.239-4.584-4.055-6.327-4.047-11.183.009-6.27.18-11.282 2.441-17.134 2.331-6.029 7.557-9.112 9.893-14.901 2.523-6.251 1.445-13.079 8.669-16.433 12.337-5.73 26.657-4.303 37.732-11.817 5.889-3.996 12.609-5.339 18.183-9.842 4.241-3.429 13.353-6.089 16.248-10.509 3.274-4.995-13.368-4.578-15.236-4.606-7.272-.106-17.091-2.576-24.106-.656-10.939 2.99-17.088 21.683-30.501 10.669-4.841-3.975-8.29-11.231-15.811-7.797-14.166 6.475 1.565 14.398-4.305 20.268-3.981 3.982-13.942-5.062-16.352-7.794-5.098-5.776-5.469-12.312-4.436-19.883 1.826-13.384 14.001-23.455 27.243-23.487 7.375-.017 8.042-7.34 14.259-8.217 5.129-.725 10.286-2.118 15.492-1.873 15.755.736 30.396 6.306 46.358 6.86 10.291.354 32.465 9.05 37.912-2.492 2.881-6.102 7.006-11.551 10.474-17.321 3.729-6.209 7.373-15.401 12.241-20.685 9.146-9.926 18.479-27.014 23.431-39.568 1.73-4.393 7.016-8.687 7.02-13.728.001-4.539-13.104-5.705-15.688-6.56-6.29-2.081-22.847-15.981-10.656-19.391 12.759-3.565 24.045-8.513 33.563-18.027 5.752-5.75 11.712-11.79 16.389-18.473 4.704-6.72 12.603-29.383 10.802-36.11-1.17-4.373-29.842-45.475-32.279-45.475-4.66 0-8.26 26.192-9.344 30.35-1.539 5.896-2.379 12.354-4.522 18.053-1.292 3.431-5.25 10.13-5.25 13.328 0 7.266-9.164 22.271-12.915 28.168-4.948 7.774-8.061 16.316-13.577 23.922-6.61 9.111-12.409 18.597-20.313 26.689-1.435 1.468-23.213 17.732-20.892 7.907 2.609-11.047 8.764-21.214 10.281-32.764 1.875-14.268 4.919-28.614 7.331-42.83 7.708-45.453 2.413-89.173 3.433-134.781.41-18.352 2.251-36.681 2.91-54.947.213-5.913 8.835-56.953 9.771-56.953-6.618 0-11.689 33.115-12.488 37.724-2.493 14.372-.106 30.312-3.488 44.458-6.134 25.65-8.727 52.622-12.812 78.484-4.759 30.126-9.023 61.121-19.01 90.08-8.523 24.72-17.566 45.954-31.409 68.286-14.44 23.298-38.458 47.375-64.05 57.346-25.366 9.884-48.574 9.409-74.328.606-19.884-6.799-45.505-29.079-52.88-49.274-6.442-17.644-16.668-43.33-9.752-62.211 1.502-4.104 6.525-21.476 10.966-8.13 2.592 7.785 12.602 13.453 20.209 15.502 24.019 6.47 43.279-2.98 59.295-20.155 23.512-25.212 34.315-62.837 42.222-95.439 3.292-13.573 8.704-27.93 10.642-41.718 2.878-20.475 11.062-39.61 14.646-59.726 3.438-19.296 7.596-38.674 10.327-58.084 1.465-10.414 4.811-20.332 6.769-30.479.978-5.068-.07-10.182 1.616-15.205.729-2.172 3.272-16.866-1.966-8.389-2.983 4.829-.578 11.25-3.443 16.327-2.674 4.737-3.971 14.48-3.971 19.897 0 6.89-3.369 14.942-4.283 21.976-.899 6.914-3.229 15.37-5.924 21.774-4.655 11.063-8.073 22.528-11.975 33.868-2.642 7.68-10.791 21.063-10.791 28.823 0 9.992-10.356 22.545-14.838 31.342-2.85 5.596-4.258 12.283-7.135 17.664-3.774 7.062-9.062 13.314-12.587 20.772-10.077 21.352-35.027 40.497-55.191 52.145-42.881 24.771-109.397 11.103-116.312-45.163-3.242-26.385-2.015-55.408 19.643-74.779 12.46-11.145 14.761 16.035 28.89 17.01 12.74.878 22.574-5.568 30.933-15.073 26.044-29.616 39.567-68.469 55.086-104.164 7.87-18.106 15.39-35.657 22.164-54.259 3.141-8.626 5.556-17.343 8.186-26.122.809-2.701 11.474-29.874 10.598-30.751-1.551-1.551-15.64 27.166-16.718 29.162-6.622 12.271-17.563 22.37-23.963 34.254-5.706 10.599-20.13 22.056-29.22 29.353-9.188 7.375-21.803 11.082-33.228 12.45-24.274 2.906-47.056-6.166-64.083-23.404-18.411-18.641-23.971-40.065-21.91-65.899.597-7.472 6.781-3.7 9.836-.664 6.763 6.724 12.098 7.702 21.483 7.182 12.817-.71 24.561-10.456 34.244-17.959 24.514-18.995 37.97-46.964 53.353-73.142 15.464-26.318 32.112-52.195 46.586-79.02 13.319-24.695 29.145-49.366 47.968-70.3 15.504-17.243 33.103-31.887 51.26-46.146 11.639-9.143 26.927-13.824 38.215-22.802 3.889-3.089 16.337-4.785 21.654-5.19 9.076-.69 18.101-2.466 27.229-2.872 9.694-.435 18.662 4 27.901 5.863 11.669 2.353 17.283 9.614 27.179 14.692 27.071 13.9 25.034 59.371 13.812 81.629-7.824 15.513-42.067 28.61-36.142 49.167 9.255 32.115 52.407 31.815 63.656 62.22 4.515 12.199 6.383 24.408 11.397 36.426 4.719 11.287 23.812 10.89 33.17 10.792 27.31-.285 59.125-14.761 64.309-45.709 2.097-12.492 8.577-23.83 10.244-36.769 2.199-17.071 4.614-32.513 3.345-49.941-1.599-21.922-10.57-46.21-20.172-66.037-5.335-11.017-12.669-22.309-21.538-30.801-8.604-8.24-21.371-20.343-32.687-24.379-11.109-3.964-40.179-2.661-31.062 16.512 1.636 3.441 4.612 12.205-2.559 6.782-5.993-4.531-12.07-12.71-13.353-20.325-4.7-27.984 7.745-52.761 34.389-61.121 25.54-8.015 48.481-.034 73.53 4.334 5.407.943 12.493 6.269 17.831 2.607 6.551-4.496 13.225-5.631 20.503-8.099 10.462-3.547 28.754-1.523 38.817 2.496 32.205 12.865 52.715 34.118 66.629 65.778 4.926 11.206 5.242 23.74 5.299 35.721.053 11.813.555 30.407-5.131 41.063-5.441 10.195-7.371 27.352-9.52 38.703-2.73 14.451-7.682 28.09-10.865 42.344-6.502 29.089-9.619 54.64 14.113 75.734 22.016 19.566 53.057 9.085 72.59-8.647 12.959-11.763 22.896-26.407 35.311-38.708 5.27-5.223 10.939-10.726 17.33-14.58 6.799-4.101 13.408-5.56 18.164-12.479 7.197-10.474 7.48-27.344-.752-37.251-10.584-12.741-16.783-23.426-20.596-39.405-6.074-25.479 8.51-48.773 28.311-64.861 18.206-14.792 37.311-16.88 59.483-16.876 23.445.004 53.199 29.163 68.111 44.896 21.307 22.479 42.152 46.069 59.936 71.45 13.494 19.258 25.469 40.538 40.621 58.503 14.738 17.474 34.453 37.443 44.889 57.952 6.287 12.369 17.533 22.821 25.486 34.228 7.799 11.188 16.943 21.65 25.785 32 4.779 5.592 24.805 23.905 32.252 13.812 2.521-3.416 2.016-13.331 4.768-15.133 4.773-3.128 10.471 15.561 10.938 18.424 2.775 17.085 6.254 31.552.961 48.823-3.555 11.594-12.318 23.909-21.031 32.199-20.186 19.201-52.457 11.25-73.002-3.752-17.553-12.814-31.873-33.272-43.639-51.229-5.311-8.1-11.029-17.965-17.24-25.299-2.592-3.06-16.301-27.619-20.6-27.619-2.037 0 8.209 29.336 8.637 32.617 1.875 14.366 6.547 28.465 7.59 43 1.807 25.186 14.498 50.838 21.504 74.895 5.684 19.525 15.463 40.937 24.742 58.951 8.518 16.537 22.084 46.492 44.818 45.444 13.543-.661 27.553-9.525 31.656-23.09 1.23-4.067-1.826-14.378 3.469-14.722 5.906-.384 8.936 9.697 10.598 14.173 4.627 12.464 7.82 24.52 7.33 37.934-.373 10.271-2.725 25.127-7.34 34.505-10.693 21.728-32.74 51.38-59.117 54.733-30.029 3.816-57.76.498-81.146-19.181-8.088-6.804-19.191-18.823-22.586-29.016-3.055-9.167-17.125-21.812-17.125-31.383 0-7.389-9.355-23.708-13.49-30.111-4.947-7.662-6.914-20.441-10.035-29.271-7.166-20.278-13.654-40.837-19.131-61.829-1.666-6.384-12.75-69.724-18.832-69.724.025 0 5.664 69.023 6.252 74.938 2.535 25.608 9.695 50.722 13.922 75.931 7.955 47.458 18.881 99.993 43.316 142.141 16.48 28.425 42.973 41.036 75.098 33.483 15.486-3.644 20.396-17.365 21.438-30.861.381-4.936 4.76-5.302 7.512-1.664 5.072 6.702 6.938 13.349 7.639 21.773 2.531 30.392-6.336 51.615-22.996 76.582-13.58 20.353-34.475 29.907-56.545 38.014-36.943 13.564-74.695-2.188-104.865-23.711-35.994-25.69-54.93-72.565-65.826-113.438-5.457-20.472-9.277-41.241-14.299-61.776-4.428-18.094-2.951-39.436-10.318-56.661-3.752-8.771-1.709-21.736-2.992-31.334-1.564-11.66-.965-23.431-2.682-35.023-1.492-10.074-2.76-20.03-3.768-30.162-.162-1.652-2.814-28.159-4.375-26.598-2.613 2.611-.527 15.914-.498 18.921.08 7.778.08 15.607.734 23.365.283 3.327 1.604 6.276 1.986 9.492.799 6.692-2.133 12.057-.578 18.809 2.844 12.346 1.488 26.686 1.656 39.223.25 18.45.254 36.838-.068 55.285-.582 33.283-1.557 63.764 6.576 95.812 1.23 4.844 7.301 11.838 7.301 16.156 0 6.547 9.992 10.675 9.992 16.046 0 7.696-27.689-4.872-31.312-7.711-22.654-17.745-36.66-40.816-46.273-67.351-1.93-5.325-3.25-11.057-4.742-16.521-1.5-5.499-1.152-12.871-3.156-17.945-2.4-6.073 1.117-13.32-1.135-19.092-2.42-6.195-10.1-52.713-10.604-49.812-2.408 13.765-21.596 74.947-26 88-3.893 11.533 20.881 39.739 28.465 47.576 10.449 10.792 17.352 14.514 30.645 20.741 7.27 3.403-8.955 12.521-7.574 4.354.754-4.468-11.191-5.172-13.799-8.313-3.73-4.494-11.232-7.32-15.879-11.294-5.02-4.293-10.174-11.256-15.775-14.426-2.822-1.595-2.693 13.975-2.564 15.796.391 5.544 7.354-3.229 8.57 5.194.568 3.931 3.199 16.244 8.492 6.009 2.604-5.037 7.201 11.052 13.049 5.285 3.408-3.357 31.07 9.847.08 10.253-4.336.057-12.129-1.729-8.465 5.826 2.748 5.663 5.523 10.687 7.438 16.725 4.834 15.252 13.99 29.108 19.316 44.278 3.342 9.515 7.779 18.098 12.111 27.182 2.32 4.861 4.346 9.757 6.797 14.541 4.92 9.606 8.43 8.459 17.848 10.555 11.777 2.62 25.289 1.185 37.17-1.157 12.869-2.54 26.039-8.005 38.662-10.129 15.799-2.659 20.68 6.982 34.576 9.842 9.52 1.957 26.729 13.812 26.729 25.137 0 6.287 1.916 17.11-.959 22.653-2.273 4.384-7.74 13.893-14.25 11.541-5.137-1.855.914-13.693-2.049-18.975-10.416-18.563-18.172.616-27.561 5.811-4.264 2.358-13.537-3.045-17.051-5.886-8.57-6.936-13.189-9.396-24.531-10.419-22.307-2.018-3.158 6.996 4.758 15.236 5.75 5.99 15.049 13.589 23.662 13.581 8.869-.008 13.514 5.564 16.859 13.062 2.17 4.861.354 10.338 2.152 14.727 1.445 3.533 5.992 5.949 7.682 9.785 6.203 14.074 3.215 28.272-7.414 38.902-4.494 4.498-11.084 10.955-18.041 10.955-9.92 0-7.869-5.041-3.184-9.687 7.457-7.394 10.148-25.442-4.559-25.488-18.234-.055-18.445-7.007-24.672-22.782-4.752-12.047-14.762-22.501-24.195-31.08-2.697-2.453-22.912-17.51-19.645-9.082 4.615 11.897 5.832 25.216 12.395 36.33 7.465 12.641 21.502 26.715 20.047 42.195-.654 6.965-4.25 9.338-2.354 16.454 2.062 7.731-1.555 14.22-3.014 21.511-2.324 11.606-16.326 16.897-25.928 19.691-2.75.801-14.594-.835-16.338-4.242-2.281-4.453 12.176-7.297 14.713-10.336 2.367-2.836 6.977-23.512-2.027-21.981-7.359 1.251-16.025 2.505-19.643-6.623-2.992-7.553 2.164-11.747 2.191-18.125.02-4.947 1.885-15.455-.617-19.628-3.979-6.642-6.039-16.615-6.062-24.318-.057-18.065-8.242-51.651-33.162-42.155-8.094 3.083-22.762 1.673-28.812 8.248-5.098 5.542-16.924 8.685-23.676 5.801-3.953-1.688-6.055-9.161-10.424-5.687-5.535 4.396-9.676 4.234-12.883 11.468-1.047 2.36-2.238 17.287-6.682 14.377-4.311-2.823-10.188-11.021-10.932-16.177-1.748-12.163-.945-22.474 8.912-31.278 4.438-3.962 9.258-3.538 13.869-6.313 2.248-1.354 1.826-7.951 4.312-10.28 15.543-14.562 41.188-2.358 59.201-.86 3.508.291 11.014 2.452 14.176.385 3.107-2.038.973-11.328-1.27-13.506-7.158-6.951-7.006-13.564-14.023-20.313-4.145-3.983-3.611-6.783-4.781-12.047-.752-3.382-6.219-6.44-7.967-9.859-1.527-2.988-1.479-10.252-3.699-12.37-2.855-2.721-7.244-10.41-9.947-11.636-.023-.014-26.473 33.956-27.268 22.005-.811-12.197 3.578-25.045-2.193-37.151-6.625-13.896-35.711-15.267-43.01-8.406-10.629 9.995-7.898 22.909-11 36-3.764 5.538-16.902 40.689-12.959 46.753 4.18 6.429 12.887 8.504 17.508 15.151 5.742 8.255 6.283 20.068 3.016 29.391-3.504 9.999-28.176 18.012-28.148 26.62.043 13.538 3.01 32.549 8.492 44.943 5.453 12.316 7.559 34.112 25.055 34.098 14.178-.016 22.293-18.247 25.654-29.812 3.754-12.918 17.979-18.277 29.744-17.381 5.834.444 29.014 18.718 18.486 22.391-6.342 2.215-10.662-1.576-16.711 3.244-5.551 4.423-7.732 12.189-8.795 18.974-2.408 15.35 5.102 31.558 2.953 47.774-.902 6.828-15.939 23.604-13.258 26.305 11.486 11.568 24.178 18.113 20.502 37.391-1.529 8.015-5.359 13.812-10.928 19.512-1.518 1.553-23.242 15.92-22.156 6.694.48-4.1 4.859-6.158 3.17-11.138-1.896-5.588-6.719-6.693-10.648-10.116-2.258-1.966-8.084-2.874-10.91-3.584-7.604-1.918-13.859-4.608-21.188-7.292-7.836-2.872-4.814 13.205-4.898 16.92-.285 12.756-9.262 18.915-17.564 26.741-5.723 5.393-16.027 5.266-22.711 9.352-4.977 3.031-8.425 18.543-15.705 10.645m-12.338-45.01c2.189-2.187-6.165-27.435-5.779-33.352.833-12.791 1.729-29.742 7.578-41.313 1.209-2.388 10.558-32.679 13.012-24.119 3.769 13.148.044 27.811.34 41.348.352 16.199-.563 32.409-.023 48.605.099 2.944.447 9.616 4.803 9.616 7.73 0 6.583-21.709 6.447-26.386-.926-31.661-2.959-63.615-3.208-95.417-.166-21.239-1.886-42.587-1.756-63.756.051-8.465 1.368-17.479.396-25.871-.453-3.901-4.056-3.827-5.521-.855-5.701 11.565-1.512 32.95-1.862 45.316-.312 11.056-2.445 21.76-2.805 32.707-.39 11.891-3.566 31.849-9.789 42.027-10.712 17.559-18.213 43.244-18.85 63.521-.189 6.048-.549 12.616 1.503 18.427 1.435 4.067 10.242 14.776 15.514 9.502m-101.176-6.71c3.609-6.764 2.869-23.884 11.667-27.53 2.699-1.115 17.587-13.453 8.877-9.581-6.877 3.059-14.752 9.481-19.266 15.354-3.248 4.224-4.864 8.937-6.187 14.017-.9 3.47.455 16.087 4.909 7.74m230.711-9.989c5.76-11.421-24.133-22.406-31.666-19.679-.178 1.189.426 2.045 1.811 2.567 4.203 3.486 10.709 3.137 15.211 6.218 2.388 1.636 12.716 14.716 14.644 10.894m-62.06-15.071c6.35-7.548-5.338-22.313-7.459-29.449-.938-3.162-13.98-30.288-5.443-24.294 4.006 2.816 5.443 10.175 9.285 14.234 2.848 3.012 7.01 6.161 10.271 8.668 3.463 2.662 34.566 20.791 34.566 12.462 0 1.552-34.225-14.185-37.172-17.49-10.594-11.876-22.73-28.576-22.771-45.42-.014-5.32-3.318-18.025-5.49-23.144-2.838-6.688-1.744-15.987-2.865-23.185-1.709-10.963-3.674-24.327-1.58-35.304 1.107-5.804-1.02-13.254-4.219-3.545-3.199 9.715-.369 18.609-.34 28.412.057 19.297 2.865 39.502 6.383 58.488 2.988 16.126 7.709 31.539 12.379 47.128 1.754 5.85 4.021 11.343 6.047 17.15.847 2.437 3.322 21.334 8.408 15.289m-103.679-3.641c7.978-9.606 7.437-24.994 13.131-35.696 6.415-12.054 11.214-31.562 12.157-45.011 1.031-14.688 4.443-29.797 6.672-44.271 1.526-9.909 3.501-20.127 3.916-30.157-.019.453.607-22.361-4.884-15.743-2.853 3.435-.94 13.802-1.846 18.232-2.123 10.383-2.533 21.009-3.483 31.534-1.25 13.846-1.18 31.562-8.297 43.967-8.008 13.987-15.026 24.112-26.589 36.045-4.887 5.044-11.179 8.033-16.517 12.512-5.245 4.401-21.643 5.048-24.559 10.012-1.806 3.071 12.217-1.133 12.688-1.293 7.222-2.456 14.834-4.725 21.743-8.017 12.322-5.867 19.156-15.965 26.322-26.824 6.034-9.144 2.171 3.789.627 6.872-3.343 6.673-6.278 14.029-9.086 20.958-2.314 5.716-3.719 11.479-5.792 17.287-.636 1.784-.996 15.371 3.797 9.593m-32.265-10.876c1.966-3.137-6.278-1.562-4.917.639.514.836 4.302.345 4.917-.639m165.174-18.154c22.729-4.214 29.742-22.926 26.525-44.432-.686-4.59-2.287-10.003-1.977-14.637.119-1.789 4.104-11.253-1.58-8.317-5.045 2.605-6.045 7.714-5.955 12.59.215 11.415 6.355 23.238 1.412 33.914-4.711 9.157-12.92 12.119-22.299 14.192-3.332.737-20.385-5.441-20.734-5.092-1.848 1.848 9.117 7.853 9.861 8.54 4.974 4.576 8.622 4.379 14.747 3.242m-177.891-14.754c2.085-1.37 17.3-5.916 14.724-9.274-1.074-1.4-17.429 4.905-19.878 4.473-8.434-1.489-14.829-7.973-15.487-16.6-.712-9.345 3.742-18.255 2.199-27.089-.5-2.866-5.598-25.305-12.476-18.425-2.203 2.202 3.555 7.593 3.506 10.989-.091 6.342 1.229 14.493-.924 20.438-5.229 14.436 8.631 48.436 28.336 35.488m57.043-147.56c7.714-5.578 6.749-3.538 14.711-2.049 6.661 1.253 10.466 5.461 18.027 2.389 7.427-3.017 7.656-9.189 15.123-3.659 5.956 4.411 10.485 4.893 16.729.692 9.211-6.197 20.895 6.075 33.246-1.731 3.961-2.504 6.801-13.274 1.398-9.229-4.74 3.552-11.25 5.086-16.994 5.246-4.15.1-5.58-.771-9.012-1.631-7.029-4.839-7.002 1.646-12.418 1.719-2.395.031-3.879 2.925-6.607 2.922-2.729-.005-4.375-2.924-6.841-2.928-2.655-.009-1.839-4.082-3.854-4.69-2.663-.806-6.003 5.426-7.322 6.568-3.481 3.019-9.263 3.749-13.625 2.754-7.655-1.745-7.38-12.009-14.372-5.257-4.992 4.819-8.781 8.823-15.499 5.194-1.904-1.026-8.708-10.291-9.34-9.657-7.579 7.58 10.316 17.93 16.65 13.347m41.986-35.794c5.057-3.598 13.106-7.659 18.895-3.962 4.809 3.071 20.5 6.741 20.5-3.114 0-5-9.434 2.893-12.363 1.859-7.557-2.662-11.396-9.439-11.785-16.882-.373-7.169-6.422-9.396-7.092-1.219-.818 9.993.26 18.873-12.516 18.873-4.541-.245-6.091-.211-8.95-4.35-1.438-2.08-5.172-20.827-6.645-18.979-5.05 6.358 2.147 15.633-6.764 21.395-3.396 2.197-18.275-1.444-13.644 3.241 3.953 4 12.128 4.15 16.554 1.211 9.187-6.102 14.874 8.294 23.81 1.927m-201.444-331.789c-5.148-5.64-15.021-20.669-4.5-19.692 5.278.492 5.639-1.572 2.584-5.25-3.778-4.544-4.487-6.319-4.438-12.514.071-8.695-.269-17.405-.556-26.094-.126-3.804 1.683-19.088-1.107-22.005-2.046-2.136-3.437 16.95-3.664 18.421-1.507 9.758-1.156 19.433-3.524 29.029-4.297 17.403-5.194 37.556-5.226 55.396-.054 30.601-8 61.55-10.479 92.037-2.543 31.266-11.887 60.98-20.677 90.716-.928 3.136-11.294 29.743-2.456 22.113 5.113-4.415 7.011-12.531 9.092-18.684.697-2.059 2.355-23.89 5.923-20.32 2.604 2.604-.79 9.525 2.214 11.621 4.631 3.227 4.854-31.982 4.519-34.475-3.146-23.346 7.323 6.425 9.655 6.425 3.055 0-1.556-38.047-2.561-42.222-5.818-24.179 13.717 17.108 14.593 16.896 8.365-2.01-11.441-50.396-8.303-50.763 7.385-.857 11.692 24.548 17.1 22.748 8.733-2.914-18.173-39.099-15.648-43.812 2.501-4.672 17.789 14.466 15.959 8.447-3.244-10.672-7.391-20.646-11.226-31.101-6.696-18.26 18.798 13.864 18.765 13.886 4.167-2.576-7.552-22.609-9.078-26.214-1.473-3.475-3.436-7.998-5.916-10.824-5.994-6.825 3.921-1.571 4.67-1.358 4.818 1.372-17.244-28.381 1.919-18.004 0 0 1.635-1.173 1.91-1.822.274-.647.456-2.581.456-2.581zm645.025 296.6c4.615-5.562-6.914-28.711-5.748-29.005 5.154-1.292 18.916 20.414 21.785 24.335 2.273 3.105 4.928-4.064 4.928-5.576 0-4.034-8.406-14.664-7.812-16.207 3.084-8.047 28.797 17.853 28.797 8.445 0-4.033-13.746-16.019-7.412-16.394 4.656-.277 24.014 5.977 14.836-4.632-5.938-6.865 5.281-5.183 9.822-7.596 5.838-3.099 3.203-3.848 1.875-8.858-1.092-4.113 5.564-5.415 8.037-6.697 1.334-.692 12.254-32.217 7.826-32.217 3.986 0-11.891 26.371-13.004 28.28-5.438 9.324-14.576 15.07-23.828 19.579-25.734 12.543-47.332 10.771-72.5-1.943-48.521-24.511-62.957-82.217-74.137-130.652-12.117-52.5-28.477-106.976-30.996-160.979-.689-14.733-1.604-31.66-4.582-46.053-2.584-12.496-1.574-25.2-3.588-37.738-1.926-11.992-4.359-7.778-12.734-13.453-6.139-4.16-13.725 7.313-15.973 12.245-1.332 2.92-24.301 26.028-21.385 29.539 4.43 5.343 35.471-31.984 37.918-29.039 1.885 2.272-9.758 21.228-11.566 23.42-2.881 3.488-16.008 13.968-14.682 20.002.686 3.121 16.695-7.172 18.359-8.55 1.953-1.618 7.781-8.658 10.551-8.658 4.492 0 .594 6.871-.133 7.891-1.279 1.799-37.666 35.319-32.424 38.885 3.434 2.337 18.07-10.392 21.248-12.759 1.1-.818 17.779-17.608 15.91-9.841-1.857 7.73-7.656 14.86-12.801 20.548-4.895 5.412-18.926 16.687-19.117 24.438-.088 3.471 17.293-8.698 17.955-9.279 2.289-2.008 17.176-16.085 17.176-11.314 0 7.301-13.941 19.082-17.996 24.772-2.805 3.935-5.174 8.506-8.26 12.203-6.086 7.292 2.316 3.779 4.816 3.204 7.902-1.822 15.562-13.492 21.129-18.616 6.939-6.388-3.949 12.143-5.809 14.37-4.904 5.89-9.385 12.35-14.662 17.823-6.148 6.378-14.824 12.762-1.475 7.895 5.871-2.144 15.682-8.554 18.818-14.297 6.496-11.895 7.438-3.479 3.525 3.985-3.055 5.829-36.691 37.389-32.299 44.494 1.387 2.245 28.783-20.05 31.23-23.001 1.592-1.922 2.354-4.34 3.945-6.335 3.051-3.825 5.92.219 3.074 3.458-1.695 1.933-9.037 12.621-9.037 15.588 0 13.426-25.834 24.212-24.389 37.62.592 5.486 17.094-10.25 19.055-12.262 3.039-3.118 14.824-13.416 14.824-17.788 0-1.946 2.566-4.636 4.293-2.37 2.852 3.748-2.332 7.244-3.117 10.479-1.695 7.013-8.232 14.923-12.414 20.569-3.922 5.293-6.125 13.252-10.48 17.985-1.607 1.749-7.582 9.883-5.068 12.394 1.818 1.82 6.75-4.566 8.326-5.408 6.047-3.222 12.955-10.562 17.01-16.029 2.234-3.011 3.758-6.347 6.396-9.091 2.895-3.013 3.023 3.489 1.787 5.161-3.305 4.48-12.727 18.667-12.727 23.967 0 2.126-10.451 18.562-9.32 18.66 6.129.533 17.389-16.065 20.428-19.633.941-1.104 3.016-5.733 3.977-6.241 5.889-3.114-.623 11.753-.779 12.09-3.023 6.479-25.719 51.136-23.791 52.329 4.742 2.931 22.066-19.793 22.752-23.44.572-3.061 9.83-23.273 12.756-23.273 6.123 0-24.645 67.293-26.279 65.938 3.898 3.237 20.17-17.374 22.504-20.545 1.973-2.681 2.67-5.861 4.568-8.614 3.193-4.626 6.809-2.537 4.227 2.583-3.59 7.132-7.463 15.913-9.74 23.482-1.52 5.03-6.434 8.876-7.383 13.97-.127.671-8.996 14.277-3.703 11.504 5.725-3 12.307-10.605 15.605-16.135 1.689-2.832 13.148-25.737 13.148-16.821 0 4.274-14.916 46.421-13.773 46.858 6.693 2.571 20.314-34.021 23.049-31.752.887.734-3.383 14.493-4.035 16.21-3.17 8.34-4.602 16.955-8.174 25.229-2.434 5.635-2.787 12.554-5.574 18.017-3.986 7.814 9.523-3.619 11.258-7.026 2.066-4.071 5.588-7.885 7.088-12.24 1.154-3.351 2.459-8.629 4.027-11.703 1.502-2.948 6.184-5.139 4.713.009-3.562 12.495-8.443 24.659-12.293 37.389-.51 1.675-6.637 15.062-3.023 14.968 5.529-.146 13.725-12.846 13.725-18.062 0-4.754 3.99-11.382 5.633-15.882 3.949-10.827 6.734.926 3.994 7.263-1.926 4.448-10.229 42.928-7.863 43.521 13.791 3.461 13.492-34.736 18.107-39.352 2.922-2.924 2.916 8.982 2.854 9.673-.66 7.345-.504 14.732-.875 22.093-.16 3.219-4.459 18.688.176 18.725 4.283.033 10.779-20.383 11.402-22.609 3.693-13.199 3.977-22.656 6.303-2.403.9 7.837 1.35 20.611 3.965 27.704 2.455 6.666 7.734-4.396 8.148-5.846 1.721-6.013-.453-13.638-1.297-19.729-.385-2.753-.498-4.979 2.916-5.909 3.766-1.027 4.557 8.786 5.85 10.911 2.24 3.682 3.578 22.641 9.77 23.839 7.715 1.488-3-28.544-1.41-29.864 2.693-2.239 21.888 34.847 23.273 33.177m-115.227-157.81c-.189-1.406.381-2.302 1.705-2.688 2.985.577-.787 5.079-1.705 2.688m-761.268 137.455c16.23-9.376 11.604-26.763 20.069-40.285 5.058-8.081 3.515 9.576 3.113 12.281-.31 2.083-2.962 24.986-1.43 24.398 3.782-1.448 8.154-14.901 9.774-18.735 3.661-8.66 4.27-17.065 6.251-26.104 2.782-12.688 11.125 35.092 9.213 34.46 9.019 2.989 7.809-52.348 10.265-49.316 3.234 3.994 4.806 43.949 10.883 43.933 6.706-.019 1.1-48.545-.487-54.344-3.673-13.425 6.199 5.104 7.455 6.909 3.494 5.023 5.543 18.142 10.419 21.621 3.562 2.54-2.404-24.333-2.558-26.117-.45-5.193-9.439-22.27-6.074-25.987 2.337-2.582 9.35 11.669 11.011 15.168.989 2.081 15.714 24.839 16.537 20.841 4-19.45-13.656-33.433-20.037-49.426-4.737-11.873 6.72-15.796 6.72-4.801 0 7.783 11.501 21.645 15.886 27.332 5.265 6.828 13.89 15.089 7.973 1.037-3.784-8.986-8.096-17.621-11.521-26.745-2.692-7.176-6.245-13.784-8.983-20.937-3.148-8.223 12.068 8.317 13.518 9.538 4.136 3.476 17.413 16.618 10.97 2.4-3.153-6.959-4.967-13.756-9.158-20.292-1.771-2.766-6.695-7.124-6.695-10.604 0-1.316-2.378-14.152 2.667-5.828 2.879 4.746 19.896 24.856 25.59 24.856 1.022 0-15.819-32.265-19.831-36.776-8.142-9.157-6.976-13.731 3.236-4.918 2.546 2.2 26.071 22.246 27.206 21.112 3.558-3.557-29.629-44.415-27.674-45.165 1.51-.579 32.24 22.341 32.211 20.175-.215-16.576-29.136-26.734-28.881-41.971.108-6.528 11.299 5.878 12.948 7.074.91.659 13.25 8.429 12.055 4.818-2.743-8.281-26.262-26.574-23.229-34.481 1.136-2.958 34.042 24.097 35.434 18.555 3.341-13.316-24.381-25.821-28.564-35.677-5.054-11.912 9.287.838 10.923 2.34 3.877 3.56 14.017 11.922 19.093 12.935 5.794 1.158-7.523-17.093-9.216-18.835-2.865-2.948-18.653-17.097-17.245-21.535 1.252-3.941 29.591 22.644 32.472 17.978 4.836-7.827-30.111-28.365-28.022-36.693 1.614-6.429 31.793 17.191 33.021 15.208 3.491-5.651-18.888-23.617-22.875-27.843-5.15-5.458-7.289-15.659 2.219-8.609 1.833 1.359 15.308 10.784 17.323 8.77 4.745-4.745-21.362-24.789-20.667-30.198.829-6.455 20.419 13.883 24.047 10.872 3.131-2.597-19.305-23.309-20.19-29.718-1.231-8.908 21.914 15.406 23.86 13.061 4.734-5.7-26.833-30.842-19.682-36.776 2.295-1.905 17.145 20.107 22.366 18.363 3.994-1.331-18.358-30.92-20.585-35.02.239.438-3.315-30.739-7.947-27.052-4.302 3.424-3.945 28.487-4.41 33.552-1.008 10.987-.478 26.968-4.893 36.711-3.115 6.878-3.855 16.188-5.224 23.637-2.413 13.144-5.622 26.127-8.04 39.239-4.234 22.967-10.266 45.6-14.856 68.452-4.489 22.349-9.611 45.011-16.808 66.72-6.589 19.878-12.915 39.861-19.965 59.604-6.068 16.991-22.821 40.614-39.395 48.558-21.636 10.373-37.139 12.415-61.188 10.448-8.891-.729-19.713-5.743-25.929-12.089-2.145-2.188-21.968-27.908-24.163-26.486-7.976 5.167 9.105 15.699 11.231 17.35 5.257 4.083-9.758 4.243-4.749 9.312 5.552 5.616 11.628 4.458 18.188 7.512 7.01 3.264-10.375 7.148-11.454 8.89-2.129 3.447 24.416.606 25.171.82 7.325 2.071-13.688 11.248-11.429 13.971 5.587 6.73 22.497-13.103 26.517-9.465 5.247 4.748-14.011 13.859-8.813 18.173 3.625 3.009 19.789-14.819 21.742-17.226 5.963 8.1-13.7 24.401-9.433 29.544 3.421 4.123 13.394-8.938 14.795-12.151 2.259-5.183 2.711-18.143 10.654-18.143 8.935 0 1.17 15.507.717 20.021-.219 2.165-10.466 21.857-3.443 17.799m562.985-7.742c4.516-1.335 4.609-5.422 2.221-9.144-4.416-6.883 6.178-4.094 7.695-8.303.438-1.218-6.551-9.968-7.654-11.427-6.186-8.178 13.615-2.571 3.416-11.936-2.119-1.944-14.502-11.67-17.92-7.606-2.139 2.541 5.996 15.061 5.996 18.309 0 7.214-4.143 35.624 6.246 30.107m-254.357-3.035c2.906-3.211 1.223-9.034.954-12.753-.443-6.167 3.351-9.896 3.356-15.204.018-16.9-14.33-2.771-14.233-2.583 1.288 2.487 7.74 2.661 7.74 5.41 0 4.087-10.721 5.905-6.299 10.387 5.314 5.389 5.282.246 3.041 7.496-.777 2.518.755 12.431 5.441 7.247m582.742-25.426c1.363-1.423 16.209-19.413 6.59-18.576-5.146.446-17.203 20.079-15.193 23.393 2.005 3.305 8.327-4.528 8.603-4.817m13.246 1.06c2.922-3.53 5.818-6.222 7.15-10.812.604-2.088.889-12.122-3.914-6.806-2.025 2.241-3.711 7.385-4.949 9.995-.412.873-3.809 14.3 1.713 7.623m-36.326-4.512c1.746-1.197 25.811-16.164 17.455-18.412-5.189-1.396-7.234-.685-10.365 3.462-1.357 1.8-11.875 14.726-11.105 15.495 1.37 1.113 2.708.932 4.015-.545m52.002-1.433c1.533-1.021 9.529-9.976 7.115-12.999-4.816-6.046-9.965 11.497-9.965 13.993 1.055.422 2.006.089 2.85-.994m-71.783-4.737c5.672-3.266 10.629-4.549 15.645-9.189 2.137-1.978 10.951-15.56.545-10.485-3.719 1.812-22.797 16.217-21.402 19.854.438 1.149 3.065 1.058 5.212-.18m90.333-12.139c2.174-2.326 1.885-8.031-.316-6.222-.281.23-6.428 7.647-2.527 8.017.945-.599 1.894-1.198 2.843-1.795m-98.636.407c4.344-2.546 21.312-6.592 21.277-12.954-.07-10.416-16.291-.408-20.359 1.286-3.42 1.428-19.354 4.614-19.354 8.962.002 5.379 16.485 3.849 18.436 2.706m-845.522-2.478c2.458-2.967-13.518-16.579-15.507-18.936-3.076-3.644-16.271-12.427-11.266-.683 1.446 3.397 22.305 24.998 26.773 19.619m-24.288-.865c1.77-2.806-6.51-13.711-6.938-17.144-.706-5.659-12.679-12.195-12.179-4.992.291 4.208 16.058 26.99 19.117 22.136m273.601-5.588c1.629-1.599 14.334-16.127 12.686-5.833-1.648 10.309 6.466-.057 8.05-2.562 2.777-4.392 7.242-9.101 7.242.562 0 1.792 2.278 5.904 4.365 2.485 2.396-3.932.782-9.32 3.526-13.631 10.869-17.08-17.709-1.043-21.121.881-1.186.669-35.398 18.954-35.806 17.048.596.521 1.193 1.044 1.79 1.567 4.859 2.317 7.983-3.332 12.1-3.332 4.967.002.74 9.129 7.168 2.815m431.82.798c-.33-7.21-10.262-17.808-12.834-25.495-3.672-10.979-8.281-26.153-8.318-37.629-.018-6.374-2.504-13.141-2.75-19.716-.555-14.911-.072-30.02-1.598-44.871-4.039-39.337-.227-77.937.598-117.264.258-12.271-1.045-25.567 1.01-37.729.938-5.568 3.559-20.91-1.324-25.217-1.33-1.172-9.688 4.115-10.879 5.34-6.312 6.482 5.414 4.244 6.092 7.504 1.203 5.807-1.914 9.808-5.84 13.522-5.164 4.888-7.715 7.91.115 5.892 14.553-3.752 2.068 12.499-2.969 15.515-8.637 5.17 3.959 4.82 5.367 5.271 6.629 2.123-4.1 12.991-5.92 14.764-14.607 14.217 9.656 3.071 7.902 9.345-1.895 6.77-21.766 17.073-16.184 23.534.791.914 20.24-10.688 12.281 1.826-3.029 4.765-7.381 8.98-11.887 12.334.016-.013-8.916 9.099-3.344 7.947 1.527-.315 24.471-11.724 13.674-.002-2.41 2.618-22.059 17.259-18.6 20.129-.643-.534 31.492-16.057 13.215.91-3.064 2.846-21.518 22.706-16.242 27.056-4.08-3.363 33.426-26.643 20.688-9.142-4.51 6.193-9.619 12.263-13.451 18.927-1.939 3.374-6.637 19.002.166 9.734 3.525-4.804 7.689-8.94 12.369-12.675 8.631-6.891-1.238 10.391-3.293 12.854-3.768 4.521-7.914 9.268-9.168 15.2-.637 2.996-3.377 19.401-.725 20.42-.336-.128 12.041-25.68 14.65-27.687 9.176-7.054 5.98 5.513 3.25 10.617-3.199 5.986-10.09 16.297-10.268 23.292-.111 4.35-2.949 20.703.285 23.388 2.014 1.672 6.467-19.732 7.422-21.7 1.262-2.603 1.555-7.742 5.305-7.742 5.125 0 1.051 5.454 1.033 8.34-.051 8.016-3.172 15.749-3.355 24.028-.191 8.619 1.021 14.292 2.98 22.533 2.754 11.584 5.76-10.786 5.824-11.696.746-10.658 4.559-6.82 4.873 1.644.334 8.974-.113 16.297 4.076 24.363 1.342 2.575 16.032 17.947 15.774 12.336m-664.228.785c2.164-2.163-23.886-22.448-27.051-22.592-6.476-.291 5.355 12.959 7.992 13.889 3.629 1.278 15.257 12.508 19.059 8.703m-66.437-9.849c.239-3.347-5.655-19.087-11.118-14.555-2.451 2.033 6.769 17.545 10.137 16.909.327-.785.653-1.569.981-2.354m885.362-1.08c4.887-.503 10.002-.721 14.809-1.844 9.123-2.133 4.035-10.352-2.359-7.089-8.719 4.448-26.199-1.924-33.789 5.669-2.473 2.471 21.259 3.271 21.339 3.264m-811.077-4.083c3.66-3.146-8.398-7.396-9.697-8.771-2.483-2.63-5.598-5.786-8.807-7.492-3.606-1.915-4.597 2.4-7.755 2.4-5.633 0 6.152 8.94 8.395 9.562 4.85 1.345 12.931 8.545 17.864 4.301m821.866-11.906c6.736-5.591-10.9-5.729-11.01-5.729-4.959-.043-24.375-4.147-28.131-1.106-3.529 2.856 9.252 5.854 10.555 6.186 5.717 1.461 23.725 4.682 28.586.649m-799.069-3.924c3.936-3.233-13.54-5.186-14.359-5.374-3.822-.873-14.592-7.733-17.358-5.928-14.867 9.709 25.378 16.505 31.717 11.302m791.757-10.749c5.189-6.251-31.545-15.116-34.92-11.051-.84 1.011 28.811 18.412 34.92 11.051m-794.027-4.518c.948-.32 8.695-1.329 8.695-2.75 0 1.117-25.294-7.7-25.973-7.559-3.67.771-9.042 8.05-2.577 8.799 7.588.88 11.396 4.348 19.855 1.51m787.822-12.759c12.332-10.229-37.258-19.056-36.699-14.707.939 7.319 32.566 18.14 36.699 14.707m-790.367-2.172c1.776-.337 34.431-9.557 28.102-14.681-5.342-4.324-26.336 4.432-32.883 4.806-5.738.328-3.681 1.466-6.968 6.082-4.408 6.189 10.429 4.042 11.749 3.793m907.941-12.557c3.588-4.084-.281-32.688 7.867-24.535 1.625 1.623 9.258 26.042 11.025 24.812 9.689-6.729-3.43-18.144 1.582-23.155 4.537-4.537 12.281 21.366 16.244 19.844 6.111-2.343-1.227-17.328-2.387-20.571-4.873-13.65 11.262 1.885 13.068 1.885 5.959 0-5.197-16.412 4.459-13.32 6.482 2.076 19.461 2.059 10.646-7.413-7.742-8.324 3.432-7.827 9.637-8.78 11.314-1.737-4.408-9.077-4.053-11.529.809-5.629 7.512-8.099 7.941-15.464.209-3.594 2.34-25.396-.564-27.193 2.836 1.755-6.574 32.261-8.512 37.032-3.066 7.555-15.459 24.665-24.904 24.688-3.473.009-9.506 3.346-13.018 4.492-9.053 2.955-14.299 1.48-22.98-.219-11.689-2.284-24.422-15.44-29.914-25.138-7.297-12.883-16.428-24.653-22.525-38.215-4.672-10.393-7.629-22.942-13.221-32.598-11.936-20.591-13.707-46.737-22.012-68.697-9.766-25.823-11.783-54.776-21.789-80.329-4.428-11.293-2.752-27.222-9.541-37.521-10.242-15.543-20.529 10.963-23.934 16.937-4.275 7.502-12.832 16.503-15.387 24.521-1.18 3.704-6.07 12.279 2.338 5.136 10.086-8.569 15.59-18.886 23.91-28.822 1.465-1.75 8.758-10.594 5.6-1.358-2.133 6.229-4.928 15.73-8.887 20.867-2.316 3.001-19.441 28.749-18.904 31.557.959 4.978 28.865-33 29.164-33.114 4.836-1.857-7.221 26.729-8.289 28.569-1.924 3.311-16.768 24.137-14.172 26.731 3.922 3.918 20.826-22.642 21.965-24.58.961-1.638 5.4-11.54 7.754-11.54 4.812 0-.863 13.674-1.135 15.85-1.037 8.347-10.914 17.4-10.914 25.367 0 2.559-15.428 24.229-12.348 24.229 6.9 0 14.436-16.614 17.977-21.292 2.406-3.18 6.363-9.437 7.398-13.373 2.447-9.288 6.025-.181 3.432 5.562-2.863 6.335-5.125 12.544-8.748 18.5-3.678 6.047-12.209 17.512-12.209 24.687 0 1.1 15.783-14.456 16.965-16.878 1.395-2.857 4.52-8.334 4.52-11.478 0-5.539 9.984-6.345 5.764-1.331-5.166 6.143-11.727 21.156-14.918 29.065-1.418 3.512-10.545 26.004-9.266 26.004 9.609 0 16.916-19.562 20.18-25.999 1.531-3.021 6.521-20.492 10.912-13.612 2.164 3.395-9.992 26.092-11.213 29.658-1.49 4.353-14.619 25.983-11.295 29.308 6.062 6.062 25.781-39.808 27.014-38.575 6.277 6.276-10.529 29.275-13.148 35.384-.521 1.216-13.014 23.804-8.176 23.804 3.621 0 13.637-14.562 14.602-17.983 1.441-5.122 5.193-9.473 7.32-14.283 1.689-3.818 7.723-17.164 6.924-4.751-1.002 15.537-13.611 29.773-18.613 44.078-7.574 21.646 7.578-.25 12.375-6.729 1.732-2.341 10.549-18.314 12.229-18.314 6.076 0-3.754 13.966-4.359 15.466-2.725 6.73-5.641 13.413-8.18 20.254-.938 2.528-8.211 21.564-1.838 16.259 4.59-3.818 10.305-11.604 12.578-17.018 1.105-2.633 5.4-17.477 8.328-17.477 5.271 0-20.273 53.135-17.705 54.724 2.906 1.795 13.797-13.509 14.678-14.938 1.895-3.083 7.35-20.146 9.568-21 5.256-2.018-3.752 21.369-4.068 23.516-.625 4.233-10.686 20.146-6.619 23.52 1.986 1.651 12.186-14 12.604-16.916 1.941-13.638 12.594-9.873 5.883-2.23-2.734 3.118-14.432 43.397-10.676 44.642 9.326 3.091 15.098-36.439 20.643-39.677-.365.213-3.689 32.34-4.631 36.922-.354 1.722-4.875 16.096-1.252 15.656 4.617-.562 10.045-13.404 11.061-17.309 1.549-5.984 3.049-10.542 3.861-16.835 1.008-7.822 3.783 1.574 3.832 4.295.084 4.938-5.059 39.921-2.334 40.441 5.85 1.122 7.844-31.877 12.619-31.877 4.898 0 .229 32.933.617 37.366.498 5.661 8.006-7.67 8.523-8.896 1.223-2.89-.416-22.38 5.896-18.243 1.612 1.053.766 36.732 7.135 29.477m-906.413-5.019c6.106-3.14 18.468-7.774 23.104-12.613 2.141-2.234 17.295-13.68 4.174-8.219-4.808 2-25.729 3.714-27.332 7.125-1.55 3.298-9.573 18.652.054 13.707m781.091-1.483c10.229-12.328-35.926-16.069-35.803-14.732.291 3.146 33.527 17.475 35.803 14.732m-6.25-20.548c10.477-10.477-31.809-18.753-33.004-15.21-.496 1.47 31.33 16.884 33.004 15.21m-764.012-1.76c4.208-1.604 29.857-12.277 29.857-17.866 0-4.054-25.064 3.15-27.407 3.188-7.435.124-16.668 20.103-2.45 14.678m-133.676.206c3.313-2.106 6.082-11.797 7.937-15.406 3.014-5.865 5.125-13.727 9.127-18.971 9.443-12.379-.264 30.85 8.372 29.188 5.581-1.075 5.01-32.218 7.243-38.022 6.842-17.782 6.487 27.11 13.522 27.11 5.684 0 1.857-49.057 8.011-45.896 4.432 2.273 3.692 14.353 6.348 18.268 2.268 3.348 2.374 6.79 5.212 9.896 3.753 4.11 6.604 1.837 4.325-3.187-2.365-5.212-9.669-45.366-2.894-45.52-1.138.026 18.581 36.989 21.047 31.479 1.877-4.193-5.609-18.394-6.692-22.777-2.021-8.188-6.27-15.956-6.257-24.577.019-12.27 5.8 2.862 7.253 5.137 1.131 1.768 12.479 21.479 16.101 17.856 2.33-2.33-8.013-19.164-8.883-22.494-1.059-4.056-5.913-16.732-2.824-20.545 2.666-3.288 7.768 10.804 9.529 12.693 6.155 6.609-1.008-18.005-2.145-20.707-8.09-19.222 12.006 3.96 16.33 3.96 1.028 0-12.065-29.958-7.86-33.446 3.631-3.015 20.168 21.755 22.52 17.948 1.408-2.278-7.256-13.771-9.016-16.494-3.929-6.076-3.7-13.708-6.935-19.902-3.411-6.527 7.914 2.866 8.63 3.604 3.167 3.26 10.628 13.819 15.275 13.819-.821 0-14.911-29.649-15.288-32.391-3.356-24.35 23.868 16.195 24.463 10.127.227-2.316-20.708-47.181-15.258-47.181 2.982 0 21.693 30.029 24.828 26.256 2.065-2.488-18.948-39.277-19.722-44.752-1.56-11.075 12.121 9.69 12.745 10.253 3.385 3.044 9.011 15.237 13.993 15.237 4.044 0-19.167-39.01-19.782-43.506-1.204-8.786 5.881.905 6.778 2.426 1.309 2.221 15.032 21.064 17.005 19.845 3.656-2.26-8.724-21.454-9.69-23.767-.472-1.129-13.431-23.679-8.66-22.333 1.207.341 5.763 8.399 6.147 8.966 3.98 5.868 8.104 10.728 13.425 15.513 10.306 9.266-5.935-19.201-7.652-22.371-5.338-9.857-6.632-14.215-6.889-25.368-.083-3.574.188-8.397-2.442-11.266-4.068-4.44-5.518 10.665-6.029 13.081-9.916 46.783-26.558 92.606-42.923 137.274-14.735 40.22-27.103 91.225-63.954 117.855-17.091 12.354-46.642 18.09-66.259 9.16-13.306-6.059-15.28-19.959-21.693-30.907-1.025-4.34.844-21.878-1.907-24.163-1.689-1.399-4.005 5.743-4.3 7.078-.01.045 1.812 7.121 1.907 5.677-.387 5.907-2.696 1.129-5.432 1.988-2.248.707 21.419 31.112.103 17.703-8.814-5.545-.829 7.069.43 8.729 3.027 3.989 16.986 7.173 16.986 12.187 0 4.376-12.017-.942-13.689-.942-12.466 0 2.124 7.286 6.222 8.05.87.162 23.092 1.14 14.864 5.775-3.84 2.164-17.015 4.874-19.25 8.341-2.52 3.907 22.902-4.438 25.381-5.354 18.195-6.716 4.351 6.821-2.661 12.291-17.865 13.938 4.112 3.917 11.533-1.299 3.336-2.348 16.807-17.771 17.883-13.479.887 3.534-18.383 30.744-14.8 30.539 14.075-.805 15.766-30.354 26.652-30.375-1.83.005-10.293 34.604-6.341 32.089m892.674-20.585c5.209-8.425-11.195-11.4-14.828-12.421-2.205-.619-20.383-8.45-20.383-6.23 0 6.227 32.647 22.803 35.211 18.651m-756.695-.938c5.919-4.133 13.661-5.573 20.169-8.452 2.219-.98 19.557-13.882 12.102-12.879-9.217 1.242-20.28 4.285-29.307 6.793-3.958 1.097-7.752 17.881-2.964 14.538m921.17-14.49c5.787-6.275 2.729-19.752-.354-12.614-1.449 3.361-9.262 23.043.354 12.614m15.91 1.384c1.666-2.691 5.895-15.774.518-15.804-6.245-.035-.934 16.478-.518 15.804m-35.137-4.382c4.068-3.542 15.486-7.442 11.699-15.381-1.949-4.083-16.324 17.416-16.762 16.231 1.735 1.014 3.423.73 5.063-.85m54.252-10.062c3.07-12.301-9.68-6.017-2.717 4.919.746 1.166 1.575-.335 2.717-4.919m-947.615 3.568c2.559-2.098 30.481-18.75 27.946-20.316-2.989-1.85-18.245 5.602-22.153 6.778-9.634 2.905-10.833 17.677-5.793 13.538m741.808.265c8.762-10.549-34.109-28.324-36.316-25.665-2.666 3.212 33.482 29.079 36.316 25.665m141.385-7.467c3.576-2.347 7.795-3.554 11.41-5.893 3.443-2.229-.213-7.727-3.268-4.544-2.008 2.094-19.064 11.635-19.064 11.413 0 1.98 9.76-.211 10.922-.976m-1013.195-7.664c.519-3.645-32.122-28.621-33.143-27.955-10.577 6.934 32.46 32.741 33.143 27.955m-27.378-2.184c0-4.146-6.715-12.931-9.061-15.938-2.536-3.245-.276-5.288-3.648-8.478-2.264-2.141-7.726-4.519-7.104 1.188.628 5.774 4.545 11.777 7.841 16.353.871 1.212 11.972 13.854 11.972 6.875m1039.886-4.222c9.484-2.233-2-14.472-5.238-19.265-3.525-5.219-3.646-11.044-10.697-9.67-5.686 1.108-11.061 1.145-16.832.806.543 7.013 30.459 14.348 29.201 17.626-2.404 6.267-20.605-.696-22.027 3.589-1.509 4.544 23.194 7.477 25.593 6.914m-144.33-3.531c2.764-11.009-8.832-14.812-15.916-18.438-5.184-2.652-14.256-10.297-20.031-10.258-3.244.023 12.162 13.338 13.85 14.65 2.509 1.955 21.153 17.807 22.097 14.046m-733.66-.534c2.964-3.568 26.646-18.048 24.747-21.12-1.023-1.653-19.362 4.196-21.196 5.561-3.481 2.588-4.64 7.385-5.428 11.407-.094.481-1.094 7.731 1.877 4.152m-116.06-2.002c4.906-1.001-5.868-3.98-5.613-3.699-2.357-2.604-7.349-4.37-10.542-5.639-4.321-1.718-14.378-12.682-17.535-11.585-12.585 4.375 2.047 17.216 9.867 17.216 3.415 0 6.46 3.197 9.711 3.983 4.026.974 10.075.549 14.112-.276m-71.416-7.303c2.996-2.996-1.836-19.548-5.604-16.422-2.668 2.215 1.913 20.112 5.604 16.422m85.21-12.241c7.716-5.112-12.857-6.284-17.96-9.139-11.602-6.49-13.545-4.761-22.937 2.994 8.016 5.836 31.578 12.478 40.897 6.145m111.978-8.628c3.447-2.732 25.612-12.803 25.623-18.264-.001.886-38.516 8.074-29.639 19.922 1.585.361 2.924-.193 4.016-1.658m716.657-.262c6.441-7.763-6-18.37-11.473-20.729-2.828-1.216-25.613-17.26-27.857-15.397-8.016 6.652 37.668 38.128 39.33 36.126m137.289-.353c3.049-3.048-6.01-15.308-9.262-15.675-1.539-.173-23.111-2.821-23.111-2.064 0 3.895 30.197 19.915 32.373 17.739m-965.808-14.975c1.42-.973 12.45-2.999 8.912-5.937-1.074-.892-28.624.227-30.844 1.643-10.756 6.857 17.199 7.533 21.932 4.294m117.358-7.406c2.214-1.762 31.775-17.441 26.006-19.655-3.9-1.498-17.239 7.925-20.859 9.268-3.661 1.357-6.823 1.55-8.852 5.146-1.879 3.329-.699 8.74 3.705 5.241m838.34-2.689c.715-2.852-3.436-10.914-6.307-11.527-1.859-.398-19.938-3.482-20.531-2.888-1.591 1.588 25.76 18.71 26.838 14.415m-960.891-7.353c2.829-1.428 29.93-9.335 28.688-11.345-3.404-5.502-35.829 5.687-37.096 10.732-.783 3.121 2.907 3.392 8.408.613m827.229-3.462c4.662-8.711-4.717-16.703-11.371-19.398-3.41-1.38-20.312-13.556-22.191-11.68-6.244 6.244 32.967 32.192 33.562 31.078m-700.709-7.904c2.396-1.979 29.781-20.63 26.251-22.808-2.325-1.439-18.594 7.646-21.772 8.583-7.16 2.11-10.919 19.545-4.479 14.225m824.944-2.619c6.154-6.148-14.607-15.88-18.66-11.826-.292.289 16.693 13.794 18.66 11.826m-944.888-2.431c3.42-.592 26.298-6.891 26.298-11.813 0-.574-27.182-1.802-29.15 1.106-3.773 5.575-5.032 12.07 2.852 10.707m936.763-17.792c7.646-7.65-18.088-19.561-22.195-18.85-.264.047 17.454 23.591 22.195 18.85m-925.624-2.251c1.366-.33 17.243-5.073 15.798-6.518-2.084-2.084-18.376-1.711-21.276.087-8.188 5.079.921 7.534 5.478 6.431m116.826-4.633c4.056-3.612 8.921-7.37 13.381-10.462.443-.307 11.864-9.136 7.289-8.688-4.869.476-9.263 5.26-14.174 6.098-2.672.453-7.619 3.004-9.239 5.373-.744 1.086-3.105 10.373-.545 10.354 1.167-.802 2.264-1.695 3.288-2.675m688.878 1.384c3.797-9.889-4.527-11.811-10.805-16.279-3.158-2.25-24.742-13.875-24.814-14.445 1.072 8.399 35.587 30.81 35.619 30.724m-798.288-15.446c3.469-.595 30.378-10.416 28.059-16.456-.878-2.287-23.439 6.578-26.473 6.87-6.943.668-13.528 11.63-1.586 9.586m910.899-.85c7.096-7.097-16.52-22.049-19.758-18.81-1.078 1.078 17.42 21.147 19.758 18.81m-797.668-5.167c4.722-3.129 33.866-23.037 32.242-30.835-.422-2.028-18.238 8.064-20.792 9.359-4.167 2.11-11.831 7.021-13.752 11.302-1.533 3.417-5.349 15.245 2.302 10.174m681.449-8.548c13.195-11.949-25.229-27.77-30.471-31.441-4.467-3.128 5.818 11.501 8.318 13.73 3.296 2.938 19.341 20.256 22.153 17.711m217.102-3.842c4.195-4.778 5.129-13.664 5.129-19.693 0-1.652-2.648-9.757-1.896-10.509 3.469-3.471 7.631 15.403 8.232 17.119.936 2.677.738 10.458 2.93 12.273 2.51 2.084 5.086-5.846 5.129-7.489.074-2.898-6.055-21.317-2.191-22.289 6.598-1.655 7.254 18.271 13.008 18.271 10.412 0-1.537-21.48-.299-24.429 2.479-5.889 16.057 14.409 13.727-.163-.502-3.134-4.971-7.646-2.141-10.658 2.346-2.497 5.709-1.396 6.623-5.549.404-1.835 1.029-23.386-1.795-21.521-2.229 1.473-3.934 13.631-5.523 16.524-3.869 7.035-10.113 13.404-17.443 16.73-9.471 4.299-19.857 3.934-29.098-.624-23.713-11.694-42.352-38.65-56.59-60.439-6.102-9.337-14.055-17.315-19.602-27.1-6.387-11.266-13.48-23.846-21.291-34.268-7.549-10.067-14.9-22.061-20.508-33.343-2.566-5.167-14.596-31.734-20.588-31.734-1.113 0 3.74 22.252 4.398 24.979 2.381 9.853 1.633 20.075.561 30.044-2.201 20.471-10.99 40.389-12.58 60.602-.771 9.816-3.404 9.619-13.195 9.855-6.502.157-20.949-1.653-26.178-5.792-3.336-2.642-21.336-16.139-20.381-6.782.91 8.899-1.939 21.67-5.898 29.726-5.467 11.099-8.293 41.388-25.264 38.184-8.133-1.536-24.168-3.578-30.469-8.384-3.426-2.614-18.193-12.799-20.182-6.813-3.68 11.084-13.574 26.611-20.787 35.381-4.785 5.814-10.197 18.138-18.213 19.818-5.059 1.061-19.268-12.118-20.162-11.038-3.002 3.614 18.453 16.599 20.912 17.106 8.107 1.675 15.127-11.199 18.9-16.837 4.133-6.175 18.602-18.831 18.602-26.746 0-18.786 15.762-3.202 23.006-3.202 6.471 0 23.932 6.487 29.359 9.586 10.551 6.022 12.842-6.178 17.811-12.16 7.775-9.366 7.742-20.3 13.227-30.022 2.266-4.01 4.125-22.088 6.645-22.986 2.408-.858 21.199 6.027 24.525 7.322 7.156 2.785 18.133-.515 24.027 3.984 6.865 5.237 8.896-15.048 9.918-19.164 2.818-11.377 3.83-23.861 7.475-34.979 3.057-9.357.344-20.173 3.525-29.119.201-.562 1.01-23.521 6.166-16.183 3.742 5.326 1.428 11.993 1.291 17.872-.176 7.562-.131 15.134-.086 22.698.021 3.538-1.602 13.463.43 16.67 1.699 2.683 5.627-15.533 5.764-16.719.316-2.748 1.457-19.501 4.342-16.889 7.164 6.484 3.969 28.171 3.801 36.817-.053 2.649-1.959 14.808.732 16.507 4.354 2.744 7.248-12.667 7.572-15.329 5.76-47.498 5.482 25.353 7.072 25.963 6.568 2.521 5.938-18.308 9.789-18.308 7.805 0-6.85 38.526-3.352 41.429 4.16 3.455 10.615-23.637 11.078-23.792 6.221-2.073-.98 36.097.113 38.388 2.135 4.465 11.76-20.555 10.848-20.555 5.227 0-1.26 35.97 2.754 35.97 5.4 0 7.115-28.635 10.316-26.673 1.885 1.155-.461 39.423.621 38.444 2.83-2.562 9.363-26.258 8.562-26.258 9.479 0-.943 43.214 1.664 43.214 4.08 0 7.736-16.846 8.029-19.785.516-5.204 3.809-17.41 4.525-6.193.229 3.557-.906 39.09 1.832 39.617 10.713 2.062 2.717-35.371 6.895-35.371 7.283 0 4.303 41.847 8.662 36.849 4.789-5.489-.15-23.687 4.723-25.604 10.267-4.032 3.782 41.155 10.462 33.549m-1003.716-1.664c4.408-2.062 31.151-14.092 31.151-20.45 0-.26-25.896 5.258-29.811 3.77-2.363-.899-13.884 22.554-1.34 16.68m896.327-8.896c-.201-3.868-11.105-18.347-16.314-12.074-1.225 1.477 17.101 27.127 16.314 12.074m-784.493-6.034c1.771-1.971 18.826-20.2 18.024-20.508-2.906-1.114-19.619 8.776-21.579 11.26-5.609 7.11-6.584 20.54 3.555 9.248m91.456 3.606c6.946-2.739 25.803-11.604 26.674-19.75.886-8.286-8.339.956-10.42 2.625-6.237 5.001-13.372 8.062-21.14 9.567-9.018 1.748-22.603-24.482-26.604-30.7-8.998-13.98-12.287-28.731-12.739-44.944-.398-14.263-18.739 1.804-28.063 2.55-9.875.787-31.66 11.557-38.418-.759-5.996-10.932-12.401-20.775-12.462-33.925-.064-12.146.199-27.968-2.276-39.707-.853-4.038-29.555.413-33.366.389-17.486-.112-19.907-1.218-20.793-19.034-.691-13.925-2.703-28.19 3.261-41.402 1.565-3.468 3.015-7.519 3.08-11.381.016-.914-2.1-5.38-3.083-2.282-1.742 5.488-4.834 11.056-6.82 16.609-1.342 3.753-4.191 9.295-4.212 13.398-.025 5.057 1.702 12.815-1.732 16.727-6.731 7.667-10.923 20.408-16.615 29.02-15.595 23.594-33.109 50.392-54.216 69.767-11.61 10.657-30.056 22.958-46.357 23.452-8.51.257-16.726.688-24.706-1.377-4.943-2.467-10.726-3.152-15.427-6.315-2.299-1.547-12.546-15.821-13.021-15.784-2.446.191 2.649 13.866 3.119 16.884.782 5.039 14.038.144 9.692 7.826-4.074 7.204-1.05 6.867 6.896 5.461 14.394-2.546 9.033 3.035.905 8.496-9.764 6.561 5.841 5.691 9.592 4.551 6.915-2.1 10.393-5.89 15.712-10.502 7.234-6.274.927 10.151-.005 11.608-1.31 2.046-14.418 12.1-12.66 13.858 7.939 7.942 29.08-26.233 30.571-26.686 6.3-1.91-.106 14.245-.914 15.474-1.733 2.64-3.226 5.503-5.291 7.913-1.142 1.332-8.883 8.216-9.115 9.242-.781 3.458 7.158-1.62 7.609-2.017 4.318-3.789 8.576-7.654 12.239-12.103 2.598-3.154 3.588-7.265 6.092-10.449 2.379-3.023-1.286-12.773 3.927-14.003 14.532-3.43-4.888 39.822-4.245 40.355 6.32 5.247 17.966-37.93 18.364-39.974 2.061-10.593 6.843-12.545 7.361.569.121 3.066-5.869 32.19-4.398 32.19 10.041 0 11.805-41.431 12.032-48.729.053-1.691-.507-7.034.835-8.648 3.668-4.414 6.766 4.164 6.905 6.627.484 8.597-3.421 28.021.968 35.121-.241-.39 5.797-27.394 5.784-31.08-.011-2.875-4.492-24.981 1.426-24.981 7.979 0 1.549 43.577 10.075 45.23 8.383 1.626-.089-52.859-.849-56.525-.687-3.308 1.663-7.349 4.134-2.55 2.803 5.44 3.749 9.942 5.209 15.865.58 2.349 3.753 21.461 6.33 21.461 4.84 0 .216-36.32-1.479-41.153-4.983-14.213 5.439-13.403 7.189-.376.521 3.887 2.504 25.799 8.458 26.948 1.401.269.629-19.75.165-21.889-.962-4.436-2.303-9.264-2.298-13.847.002-3.296-3.495-4.344-3.495-7.609 0-1.309-3.593-13.193 2.413-8.654 2.716 2.054 4.691 8.916 5.543 11.804.254.861 5.251 17.212 8.274 12.32 2.042-3.302-4.046-18.116-5.069-21.796-1.088-3.915-3.341-8.832-3.609-12.813-.477-7.073 4.19.023 5.704-.558 3.478-1.333-2.91-11.12.906-12.857 3.387-1.544 4.323 5.042 4.323 6.778 0 4.952 7.39 5.936 10.961 6.98 12.67 3.702 23.486 4.415 35.593 1.451 6.843-1.677 8.998 39.357 10.227 44.795 2.217 9.808 8.299 24.381 14.765 32.498 6.47 8.123 31.386 1.825 40.386-1.109 3.126-1.019 16.857-8.015 19.401-6.442 3.498 2.162 4.115 17.634 6.276 22.191 4.396 9.273 7.834 26.487 15.823 33.585 7.854 6.984 17.959 27.547 30.698 22.525m456.539-10.112c.762-1.982.1-7.733-3.08-5.368-4.289 3.191 2.35 7.275 3.08 5.368m-649.48-4.204c7.325-1.986 11.882-8.23 18.351-11.506 3.78-1.913 20.228-15.51 6.426-11.941-7.031 1.819-20.401 5.594-25.818 9.458-5.841 4.169-9.846 16.942 1.041 13.989m880.916-1.757c1.738-4.531-2.562-15.938-7.477-18.005-1.896-.799-16.598-6.049-17.201-4.318-1.365 3.939 24.537 22.69 24.678 22.323m-221.823-2.519c1.057-1.614-4.662-24.089 1.232-19.263 2.857 2.339 6.074 6.787 10.195 6.881 6.688.155 1.539-6.423-.074-8.203-.914-1.007-19.354-18.929-10.133-18.907 5.109.012 8.893 5.98 12.152 9.05 2.879 2.713 12.256 2.137 7.619-2.528-3.314-3.338-8.047-5.302-11.611-8.453-4.436-3.916-5.367-9.11-8.928-12.949-6.75-7.274-12.529 1.726-12.172 8.45.346 6.491-.26 14.048 1.885 20.219.82 2.359 6.039 31.496 9.835 25.703m-464.365-5.29c3.887-4.211 6.302-13.18 1.783-17.808-6.42-6.574 8.846-1.61 11.016-1.706 7.191-.315-1.99-8.542-4.07-11.606-8.513-12.548 6.784-4.093 8.291-6.048 1.753-2.273-6.3-9.932-6.792-12.353-1.865-9.189 7.705.108 9.273 1.054 2.736 1.649 4.261-3.209 2.819-4.992-3.551-4.392-6.632-9.294-10.214-13.577-2.75-3.286-2.354-6.818-7.832-4.304-4.189 1.924-8.313 4.222-12.546 6.197-5.458 2.545-21.242 4.768-25.229 8.986-2.771 2.932 18.883 1.2 21.125.348 2.588-.984 7.109-1.41 9.062-3.571 2.831-3.128 6.422 3.881.248 6.223-7.991 3.034-19.407 9.348-25.797 14.755-6.602 5.586 11.237 2.427 12.671 1.841 1.654-.675 17.67-12.228 13.404-1.59-2.151 5.36-17.52 11.521-17.236 16.365.342 5.819 23.319-6.074 16.479 4.251-2.713 4.095-3.198 24.836 3.545 17.535m446.572.166c2.631-2.13 1.436-6.248-.424-8.336-3.322 2.117-3.697 11.674.424 8.336m-537.802-2.612c3.434-5.559 14.137-13.073 19.114-17.777 5.595-5.29 4.042-7.312-3.757-4.282-4.404 1.71-14.213 5.056-16.714 9.371-1.559 2.69-.101 15.048 1.357 12.688m-99.711-11.185c3.373-4.062 33.127-15.212 30.347-22.458.013.033-15.796 4.528-17.793 5.911-4.39 3.044-8.128 1.625-11.924 6.091-1.965 2.312-2.682 12.929-.63 10.456m782.541-4.32c6.236-4.695 31.242-37.889 18.404-38.808-7.51-.537-7.99 14.64-10.912 20.334-1.453 2.831-14.49 18.037-12.625 20.285.932 1.12 1.512.916 5.133-1.811m225.601-4.83c2.59-2.74 4.373-4.72 5.322-8.364.754-2.892-.859-8.031-3.564-2.629-1.135 2.269-11.406 12.949-9.119 15.237 1.852 1.853 6.807-3.658 7.361-4.244m-137.314 3.601c6.582-7.929-17.701-21.04-21.502-16.463-1.09 1.313 18.826 19.689 21.502 16.463m147.701.025c3.312-2.318 6.936-19.028 2.201-15.511-1.98 1.471-4.756 16.232-4.236 16.258.678-.248 1.357-.498 2.035-.747m-379.627-.356c1.076-1.075.932-5.895-1.252-5.895-4.908 0-2.166 9.313 1.252 5.895m115.506-4.835c0-3.774-7.43-16.796.646-16.796 7.588 0-6.422-10.03-7.689-11.29-17.77-17.667 13.287-2.275 13.287-6.756 0-4.725-18.836-11.323-22.783-14.143-1.785-1.275-9.092-5.929-5.961-8.76 2.336-2.116 13.738 5.31 17.086 5.844 2.455.392 9.412 1.895 9.412-2.404 0-3.709-9.154-5.511-12.119-6.648-3.07-1.179-22.42-13.011-21.305-14.356-3.035 3.655-.475 17.25-.449 22.378.021 4.624-8.496 20.458-7.062 22.183 2.85 3.434 8.826-19.427 10.707-10.729.664 3.077-3.148 28.299-3.104 28.338 4.494 3.729 12.441-33.787 13.572-6.904.32 7.606-.475 8.416 5.283 10.245.709.223 10.479 13.184 10.479 9.798m-649.213-2.934c1.29-1.18 16.594-12.596 15.969-14.224-1.067-2.782-14.416 3.495-16.756 4.689-6.76 3.448-6.313 16.022.787 9.535m886.766-1.888c4.307-1.552 18.318-6.887 10.912-11.966-4.94-3.386-22.91 16.289-10.912 11.966m-980.239-8.905c5.586-4.255 23.37-13.435 24.068-21.312.187-2.109-12.603 4.163-13.986 4.934-3.325 1.855-18.737 10.243-14.545 17.034 1.567.798 3.056.578 4.463-.656m626.764.445c1.029-1.239 1.719-6.06.348-7.195-4.053-3.372-4.11 11.732-.348 7.195m344.49-3.688c2.008-.95 8.605-1.706 9.438-3.878 1.441-3.756-4.633-6.574-7.348-5.451-2.912 1.205-23.236 6.833-23.236 6.829 1.719 6.098 17.338 4.301 21.146 2.5m-118.158-3.112c0-5.277-10.992-9.317-10.992-6.685 0 2.039 10.992 14.239 10.992 6.685m-174.176 1.501c15.564-12.24 26.848-48.827 24.131-67.544-3.137-21.639 6.141-1.123 14.764 5.089 12.051 8.681 40.102 20.498 43.564-2.604 1.867-12.465 10.252-21.489 10.625-35.073.242-8.898-1.881-16.631-2.562-25.323-.646-8.3 11.398.658 14.391 3.035 7.467 5.936 29.734 13.73 33.982 1.248 6.154-18.062 8.959-34.761 8.924-54.161-.023-13.351-3.549-27.38-5.375-40.613-.453-3.289-5.699-7.482-5.67-1.638.031 6.102 3.504 14.705 4.004 21.287 1.068 14.064-.461 27.386-.861 41.417-.227 7.79-1.611 29.085-7.723 33.742-6.42 4.893-25.795-8.15-31.922-11.363-9.201-4.825-11.168-13.133-18.357-19.134-6.531-5.45.096 13.444.535 15.014 4.188 14.99 5.35 29.762 4.225 45.345-.701 9.687-6.391 28.314-15.045 33.953-5.127 3.34-20.266-7.063-25.854-9.159-7.602-2.852-11.998-8.15-17.098-14.111-2.047-2.395-4.369-4.604-6.129-7.231-.805-1.203-9.998-10.984-7.281-4.503 4.381 10.472 2.186 21.193 1.609 31.696-.588 10.743-1.9 19.274-4.26 29.443-1.467 6.32-6.521 24.2-14.104 24.223-10.508.031-22.721-10.164-30.93-15.574-1.398-.922-19.725-14.604-19.725-7.813.002 7.374 46.025 35.162 52.142 30.352m-806.483-3.753c.99-1.193-10.398-11.257-12.275-9.7-4.496 3.733 9.349 13.228 12.275 9.7m-21.93-1.036c3.232-2.925-1.929-7.844-3.816-2.478-.769 2.189 2.002 4.121 3.816 2.478m41.613-4.154c3.032-2.517-15.017-14.876-18.699-13.033-17.476 8.753 14.94 16.147 18.699 13.033m1071.884-4.786c7.189-.515 8.432-7.168.992-9.427-2.395-.727-16.512 8.99-17.156 8.142 2.838 3.729 12.799 1.527 16.164 1.285m-285.056-2.003c2.5-2.5-9.037-19.435 1.83-16.647 9.891 2.535-13.27-12.573-14.182-14.598-6.492-14.424 18.137 2.52 18.137-7.207 0-1.737-24.756-14.163-26.664-13.43-4.533 1.738-11.209 22.028-12.184 25.557-4.596 16.63 14.369-15.739 14.369-4.372 0 4.469-1.467 21.209.781 23.475 3.021 3.044 4.506-9.048 8.305-5.11 1.698 1.759 5.207 16.731 9.608 12.332m-598.442-2.861c2.259-1.341 11.609-13.931 13.482-13.74 1.115.114 15.806 9.445 14.477 5.753-2.047-5.686-9.676-10.423-10.084-16.782-.743-11.597 13.281.728 13.157-.917-.352-4.671-11.292-11.328-6.872-16.834 3.754-4.675 9.804 9.785 10.868.814.559-4.726-2.875-11.087-3.072-16.251-.473-12.409-7.488-7.018-15.648-2.896-9.268 3.003-19.206.56-28.926 2.186-4.021.672 11.166 6.009 13.365 6.155 2.146.143 18.923-1.61 17.735 2.131-2.08 6.55-27.499 7.104-27.499 14.076 0 5.738 21.085-1.467 22.095-.458 4.366 4.367-24.343 16.699-24.343 18.438 0 5.056 12.746-.626 11.882 7.611-.067.643-6.176 14.014-.617 10.714m123.024.043c4.725-4.723-5.995-13.992-6.876-18.384-2.316-11.585-6.636-8.161-14.961-5.894-10.704 2.917-49.542 17.426-51.712.444-2.654-20.785-9.964-39.413-8.027-60.869.918-10.157-8.857-2.042-14.078-.06-10.585 4.021-22.166 4.92-33.29 6.242-6.855.812-18.335.023-18.335-8.24 0-9.625 1.821-21.337 3.897-30.737.803-3.637 6.749-23.104 4.564-25.088-2.361-2.142-22.402 2.63-25.947 2.772-3.302.132-20.73 2.477-21.792-3.082-1.811-9.478-.297-20.33-.059-29.863.133-5.601-.76-12.281.441-17.735.789-3.575 11.392-18.855 5.6-21.08-9.172-3.516-14.72 43.751-14.518 47.268.385 6.684 1.568 17.022 3.693 23.184 2.793 8.103 8.114 6.634 15.874 6.737 8.451.112 16.955.201 25.398-.248 8.121-.434 5.999 3.783 3.38 10.51-3.449 8.857-2.227 19.103-3.891 28.77-2.623 15.23-4.479 17.446 11.174 21.23 17.88 4.322 32.537-1.019 50.071-2.998 4.422-.499 3.199 20.949 3.417 23.367 1.033 11.443 5.664 23.024 8.939 33.964 3.375 11.274 7.965 9.619 19.477 10.559 4.501.367 18.097.537 21.579-2.395 3.248-2.731 17.353-7.99 21.616-6.009 3.399 1.578 11.374 20.627 14.366 17.635m645.068-2.947c0-1.279-2.846-4.049-3.941-3.839-3.727.719 3.941 7.405 3.941 3.839m-947.444-.996c19.033-3.519-19.757-17.908-19.757-4.466-.002 4.568 17.408 4.9 19.757 4.466m111.287-3.712c1.772-1.295 16.055-9.852 14.576-12.243-2.155-3.487-14.927 1.002-16.004 4.951-1.02 3.743-6.04 12.746 1.428 7.292m945.589-1.749c4.818-2.579-2.275-11.239-6.564-10.307-3.217.699-19.35 3.813-19.84 7.19-.405 2.755 23.9 4.456 26.404 3.117m-796.21-93.713c-2.395-1.299-18.312 5.593-28.038 5.269-14.713-.488 3.497-32.359-5.86-35.448-4.505-1.487-19.623 9.66-24.623 3.396-3.261-4.086 2.378-35.318.824-35.279-7.51.187-24.85 11.514-29.269-1.099-3.452-9.851.328-21.176 1.576-31.071.553-4.38-28.457 1.847-32.895.269-14.336-5.095-7.652-23.691-4.371-33.829.511-1.578 6.068-15.344-.618-12.154-6.916 3.297-4.684 12.353-7.548 17.898-6.023 11.632-3.987 33.627 11.593 34.69 10.42.71 25.511-6.305 25.277 7.237-.247 14.351-2.857 26.882 14.004 28.555 2.985.295 16.972-2.642 16.779 1.615-.264 5.773-3.416 11.138-2.959 17.723.395 5.681 1.128 12.048 7.915 12.048 2.706 0 15.807-.303 17.3.677 9.133 5.983-6.843 29.188 12.35 27.575 3.534-.297 26.248-3.767 27.249-1.198 2.726 6.992-3.774 28.622 5.066 33.457 5.558 3.04 15.404-.855 21.471-.833 7.281.026 4.162 8.997 4.123 14.158-.146 19.24 10.368 18.09 26.97 18.09 5.159 0 7.692-.133 11.957 2.031 2.873 2.158 12.672 14.121 15.436 10.792-.62.748-12.416-16.254-12.892-19.621-1.234-8.711-16.202-.539-22.46.077-18.366 1.808-13.586-15.713-10.119-27.26 4.142-13.796-25.733-.016-32.697-4.17-4.616-2.753-1.994-18.718-1.952-22.663.038-3.567.86-6.012.425-7.331-.441-1.321-1.618-2.304-4.014-3.601zm128.772 85.214c2.36-1.264-12.431-9.589-14.371-11.657-4.921-5.243-6.546-13.782-11.188-18.425-3.608-3.61-10.077.839-14.625-.995-5.788-2.334-12.022-5.066-14.62-11.267-1.607-3.837-.421-9.43-1.518-13.494-1.3-4.817-12.278-2.642-15.753-2.991-15.912-1.601-19.666-13.467-15.576-27.636 3.528-12.228-10.312-3.979-18.677-4.169-15.109-.343-22.461-5.269-18.347-22.808 1.182-5.037 5.774-11.283 6.132-16.082.321-4.326-10.007.24-11.945.966-5.657 2.119-15.043 3.95-20.997 2.206-6.021-1.765-3.413-15.284-2.564-19.642.47-2.415 5.623-12.518 1.205-12.309-8.252.391-15.114 2.802-23.888 2.04-16.299-1.416 2.343-25.24 2.343-31.15 0-6.673-12.622-2.449-16.661-2.436-7.128.024-16.64-1.363-21.479-7.264-7.684-9.37 8.641-24.984 3.285-31.219-3.629-3.253-15.565.31-20.828-1.11-3.761-1.014-15.26-9.859-15.26-.94 0 6.021 13.728 7.836 17.985 7.796 8.648-.082 10.977-1.267 7.679 7.963-5.127 14.353-2.557 28.266 13.331 30.365 5.778.764 16.482-1.518 21.334 1.915.741.524-2.678 13.432-2.781 14.997-1.008 15.277-.991 17.886 13.378 18.617 2.447.125 11.916-.989 13.796 1.587 2.524 3.46-1.049 15.834-.533 20.401 1.837 16.242 23.599.83 29.253 7.649 2.584 3.113.754 12.705 1.299 16.574.782 5.552 1.927 15.261 2.894 16.227.966.967 3.266 2.501 4.758 2.501s3.615-.546 7.281-.61c6.17-.108 12.561-.378 18.703.364 5.266.637 1.905 5.266 1.576 8.337-.481 4.491 2.922 7.826 2.922 11.921 0 15.739 26.948 6.183 29.406 12.886 1.904 5.196-1.164 14.553 3.329 18.803 7.347 6.951 19.101 3.73 27.133 8.241 3.172 1.782 2.448 5.696 4.258 8.386 2.729 4.053 6.831 7.969 10.736 10.891 4.28 3.206 12.126 7.499 17.595 4.571m294.828-1.823c8.568-7.61 7.795-11.634 19.764-6.101 5.279 2.44 13.588 5.944 19.205 5.944 12.699 0 21.018-22.772 22.57-32.894 2.213-14.449 21.592 3.895 28.186-8.057 3.064-5.554 1.234-12.791 3.582-18.757 3.672-9.333 10.178-3.145 17.33-1.917 11.158 1.915 7.461-31.421 15.197-31.629 6.139-.166 15.162 5.845 20.916.53 5.699-5.267 1.773-16.726 3.166-22.754 2.055-8.882 31.059 2.507 32.586-9.331 1.691-13.106-3.23-20.909 11.236-20.708 4.629.064 10.016.999 14.504-.312 4.127-1.205 1.992-3.599 3-7.045.232-4.943 2.721-8.48 2.943-13.256.354-7.446-1.475-14.74 6.652-18.096 24.738-10.216-10.887-8.729-11.762-3.449-1.053 6.345 1.008 34.906-7.652 35.69-7.232.656-27.48-7.932-27.416 3.294.029 5.472-.006 10.953.186 16.422.293 8.294-13.061 5.112-18.129 4.424-7.221-.981-10.01-4.256-12.494 4.066-2.234 7.495-.15 16.338-2.646 23.37-1.416 3.99-11.982 1.157-14.605.416-12.123-3.426-7.061-2.056-10.154 8.216-3.367 11.177 1.141 22.39-13.678 20.943-3.908-.381-6.895-3.591-10.613-4.785-3.684-1.182-5.625 9.32-6.262 12.169-1.396 6.24-.908 22.471-10.471 20.012-7.77-1.998-21.34-15.128-21.77-2.69-.34 9.833-2.812 39.463-17.271 39.09-10.598-.273-19.072-7.667-26.938-13.573-4.381-3.289-6.754 6.708-8.33 9.201-1.693 2.677-10.922 9.956-11.277 12.378-.588 4.003 9.555-.023 10.445-.811m-672.3.391c4.892-.451 7.898-1.621 7.641-2.972-.694-3.641-20.2-5.04-22.515-2.486-5.939 6.551 12.156 5.709 14.874 5.458m228.789-4.575c5.058-2.855 6.995-8.276 11.071-11.972 2.482-2.25 5.896 7.819 7.773 6.354 3.026-2.362-2.132-19.331 6.413-19.331 2.604 0 6.084 15.723 8.351 12.69 2.361-3.162.258-12.9.056-16.759-.292-5.585-11.672-3.778-15.589-6.332-2.718-1.772-.875-4.593-2.718-6.856-2.271-2.789-5.659-.269-8.385-.296-3.081-.029-21.102 3.794-10.023 5.965 1.604.314 16.524-1.144 14.828 2.57-1.623 3.554-13.002 6.43-13.002 10.547 0 .084 16.676 3.346 8.751 5.96-3.441 1.137-14.191 14.129-11.466 18.544 1.393.708 2.707.345 3.94-1.084m805.836-1.943c5.355-5.918-7.105-6.569-9.508-5.919-4.203 1.14-14.312-1.187-17.283 1.783 1.326-1.326 21.783 9.667 26.791 4.136m-930.403-3.451c2.328-1.813 19.064-14.369 5.979-11.377-10.087 2.306-9.401 14.043-5.979 11.377m797.621.303c2.475-3.919-3.297-11.92 3.066-13.11 9.018-1.684-10.436-11.348-12.764-13.341-10.775-9.228 2.162-5.894 7.984-5.006 12.658 1.931-7.41-8.906-9.053-9.853-3.078-1.773-17.059-8.816-13.598-13.09 2.16-1.625 7.697 1.64 10.967 2.383 9.883 2.245 29.207-5.976 10.525-6.501-9.738-.273-17.896-2.958-27.314-4.637-7.166-1.276-4.172 12.531-5.889 15.85-3.033 5.866-5.852 19.813-5.938 26.447-.125 9.625 5.553-6.486 5.992-9.169.48-2.921 6.805-19.837 8.023-11.131 1.139 8.126.191 17.134-.521 25.252-2.586 29.5 9.211-11.35 9.676-11.203 7.92 2.514 2.186 21.843 5.951 26.423 1.301 1.578 4.879-5.25 7.078-4.617 1.472.423 3.841 8.422 5.815 5.303m-882.735-6.65c7.801-3.212-9.729-5.067-9.878-5.075-2.776-.14-10.706-1.667-12.942 1.175-5.322 6.767 19.323 5.342 22.82 3.9m1006.505-3.997c1.861-1.862-7.418-12.961-8.578-14.395-3.432-4.242-12.562 2.685-17.15 2.685-11.379 0-6.191 7.442 1.682 8.764 5.677.957 19.058 7.94 24.046 2.946m-511.426-5.146c5.059-2.553 7.58-10.458 14.078-6.056 2.746 1.862 8.223 3.083 11.375 3.414 6.318.666 8.365-5.92 13.557-5.92 6.271 0 9.207 7.519 16.49 4.584 6.57-2.646 1.844-7.703 10.75-4.716 4.16 1.395 11.719 5 15.811 2.885 8.947-4.627-9.133-6.841-9.83-7.003-3.021-.706-17.854-10.754-17.953-10.495-1.125 2.938 4.559 17.568-7.164 12.401-4.949-2.18-10.82-17.805-12.266-6.399-1.211 9.544-6.09 10.595-13.938 7.247-7.135-3.044-5.648-13.833-12.002-17.248-1.402-.753-8.342 33.88-22.816 20.619-5.81-5.322 1.562-42.72-11.208-11.618-2.021 4.923-13.022 12.271-17.495 5.834-2.84-4.087.381-13.432-1.683-15.298-3.809-3.448-14.458 11.61-18.014 13.539-3.696 2.005-8.458 5.841-12.6 2.243-2.188-1.899-12.433-3.523-9.12 2.583 5.074 9.36 20.784 7.37 25.789-.171 3.689-5.559 8.469 7.41 15.845 8 6.251.501 14.132-9.846 18.292-6.581 7.052 5.538 14.554 12.978 24.102 8.156m-428.101-.494c.305-3.095-1.978-19.556-7.662-17.375-2.653 1.019 4.99 19.798 6.934 19.16.314-.104.642-.906.728-1.785m27.545-2.652c7.184-3.759 10.779-9.874-.328-7.094-6.468 1.618-9.496 12.24.328 7.094m159.285-3.996c.05-2.064.219-10.403-4.697-6.98-4.446 3.097 2.396 14.223 3.942 12.775.719-1.851.97-3.783.755-5.795m405.275 1.37c9.711-4.968 18.344-13.776 25.648-21.729 3.826-4.162 5.691-9.579 9.529-13.589 5.686-5.938 12.172-7.118 18.625-11.396 10.793-7.145 28.221-3.639 32.301-19.785.916-3.627.562-9.216 1.137-11.722-6.17-9.325 8.479-2.233 10.717-2.351 10.293-.543 18.938-11.041 18.264-21.117-.867-12.974 4.082-6.391 13.43-7.079 6.881-.506 7.844-6.978 11.004-11.576 2.104-3.064.604-10.283.633-13.949.061-8.197 4.014-4.25 9.828-3.062 17.832 3.646 7.738-19.174 14.076-23.45 1.207-.816 10.752 4.735 14.531 2.711 3.389-1.812 4.125-5.66 4.125-8.957 0-3.181-1.615-12.502 2.047-13.863 2.279-.848 17.971-4.495 11.844-10.622-2.4-2.398-15.676 4.596-18.08 6.187-3.773 2.493-3.4 12.427-5.398 16.209-3.678 6.96-7.838 3.322-13.818 5.304-5.398 1.79-1.582 14.075-8.713 17.555-4.771 2.33-9.201.223-14.256-.087-4.199-.258-3.719 10.06-4.328 12.999-1.303 6.26-3.162 16.125-11.436 15.613-4.141-.256-8.275-3.091-12.396-.885-3.77 2.014-1.254 13.139-2.494 16.847-2.859 8.541-8.262 12.075-16.74 12.075-2.951 0-10.148-3.001-11.633.085-2.555 5.313-1.207 13.512-2.439 19.317-1.852 8.731-11.471 14.412-19.742 15.784-9.225 1.531-15.09 3.247-22.869 8.029-8.516 5.227-9.465 17.744-16.807 24.612-6.668 6.237-14.66 11.907-22.557 16.498-10.48 6.09-1.9 9.419 5.967 5.394m160.338.493c2.176-2.622-3.793-11.172-3.047-14.778 1.48-7.169-8.414-4.522-8.414-10.722 0-4.812 10.74-3.067 10.74-7.271 0-3.631-14.232-5.66-16.797-9.768-3.389-5.426 6.973-2.709 8.537-2.709 1.354 0 8.492-2.63 4.717-5.324-3.059-2.181-7.551.091-10.625-2.854-5.295-5.07-13.381-3.882-15.518 3.009-.678 2.184-5.857 19.369-4.119 19.067 1.836-.319 11.701-14.848 13.305-8.303.625 2.562-5.908 23.021-5.709 23.143 3.498 2.162 10.598-17.241 12.688 1.457.343 3.066 8.539 21.926 14.242 15.053m-818.296-.474c2.06-.824 10.491-1.359 10.491-4.146 0-4.098-18.393-2.62-21.025-1.589-10.77 4.215 5.477 7.759 10.534 5.735m989.735-10.244c3.141-2.542-6.396-12.786-9.49-12.527-3.012.25-23.729 4.975-23.404 5.805 2.613 6.708 28.304 10.439 32.894 6.722m-986.797-7.272c2.013-1.041 17.053-2.569 15.787-5.866-2.235-5.823-28.009-4.503-24.048 5.817.707 1.838 7.104.647 8.261.049m320.493-6.067c3.992-10.408-18.982-29.861-27.175-34.856-11.553-7.042-22.206-16.846-32.325-25.692-8.828-7.717-16.272-20.932-18.922-32.177-2.833-12.028-14.455-7.218-23.735-13.386-9.282-6.168-1.986-26.956-9.372-28.777-13.128-3.239-28.992-4.628-32.115-21.533-.538-2.913 1.451-14.53-2.485-15.518-7.707-1.936-15.149-1.792-21.009-8.054-4.69-5.013-5.396-8.734-5.408-15.505-.01-5.516 7.406-9.637 6.887-13.94-.801-6.63-8.825 5.141-9.375 7.517-1.862 8.044-.518 14.006-.518 21.614 0 12.697 23.586 7.901 24.695 16.157 2.149 16.003 9.979 25.828 24.125 33.47 2.929 1.582 12.303-2.497 12.312 2.606.01 5.793-2.951 12.321-.295 18.069 2.608 5.641 9.616 10.023 15.268 12.067 3.98 1.441 11.844.827 14.848 3.833 1.341 1.343 4.968 17.504 4.968 19.907 0 3.236 6.751 11.918 9.617 13.463 11.609 6.263 23.968 18.417 33.73 27.008 6.183 5.439 12.102 10.87 17.946 16.699 1.297 1.296 16.339 22.233 18.338 17.028m203.527-2.029c2.857-1.3 5.916-6.389 8.832-5.593 4.529 1.238 9.227 3.412 13.643 4.95 4.271 1.489 6.688-4.07 3.025-6.332-2.289-1.417-5.803.461-8.162-.446-9.697-3.729-5.771-8.722-16.338-1.101-10.84 7.819-12.566-9.392-18.396-9.392-5.336 0-13.061 20.706-20.219 3.562-5.874-14.056-10.104 5.181-21.611 3.158-3.886-.684-4.58-6.744-6.837-9.317-2.215-2.525-6.115 6.932-7.193 8.313-6.266 8.03-12.834-.083-18.99 4.902-7.742 6.268 13.17 6.42 17.167 4.001 2.663-1.612 6.481-6.284 9.579-3.7 7.473 6.238 12.68 1.603 19.292-2.204 6.651-3.827 15.375 17.222 23.5 5.112 5.665-8.45 11.645 9.122 22.708 4.087m-316.131-.428c2.223-.785 15.868-2.932 10.444-8.281-2.077-2.048-8.268 1.622-10.027 2.842-1.837 1.273-10.409 1.065-10.409 3.153-.001 2.932 8.29 2.886 9.992 2.286m-117.225-2.873c2.907-4.656-1.528-13.385 2.163-17.464 3.54-3.909 11.16 14.744 12.432 11.431 1.858-4.843-.719-12.761-.328-17.947.444-5.874 5.019-11.883 7.599-17.015 5.469-10.879-15.478-.278-22.277-.388-4.547-.073-11.722-2.945-16.08-1.122-5.034 2.107 12.569 5.509 11.815 5.457 21.801 1.526-11.926 13.526-12.054 13.388 3.776 4.104 15.807-.722 7.271 7.601-3.097 3.019-10.104 9.057-9.761 13.959.226 3.238 9.896-5.7 11.57-5.746 1.65-.046 3.786 14.031 7.65 7.846m882.852-.885c2.145-2.367-3.482-8.459-5.367-9.577-2.18-1.292-19.703 1.615-21.938 2.85 1.051-.581 21.342 13.319 27.305 6.727m-965.313-4.813c2.582-1.334 16.571-4.406 15.516-6.052-.291-.453-15.929-2.501-16.513-2.143-4.73 2.907-8.025 12.861.997 8.195m128.099-5.276c4.812-4.469 6.182-.102 9.848.895 1.787.486-.427-18.771 6.515-18.771 5.328 0 .697 15.337 7.79 16.427 2.319.356 1.651-17.737 1.774-19.817.223-3.764 6.326-7.457 7.134-2.465.831 5.135.612 10.594.779 15.796.071 2.207 4.831 8.016 6.625 3.872 2.214-5.111-.1-16.077-.954-21.293-.716-4.378-3.465-3.188-7.349-3.219-5.528-.045-9.461.429-12.815-4.334-1.778-2.524-17.464-2.008-18.52 1.949-2.173 8.153 29.317 1.965 2.167 12.146-9.9 3.713-4.013.832-3.865 8.623.034 1.801-8.769 12.619-6.353 13.425 1.787.593 6.003-2.102 7.224-3.234m823.181-7.672c6.305-6.304-20.025-12.989-22.578-5.311-.795 2.384 20.224 7.667 22.578 5.311m-441.748-1.233c6.029-1.674 3.131-10.475 10.768-5.933 3.197 1.902 15.963 12.788 17.902 2.662.465-2.415-8.527-4.589-10.928-5.797-3.922-1.973-7.104-11.511-11.729-11.314-3.432.146-5.438 9.002-8.621 10.659-7.303 3.802-14.07-.945-17.305-7.332-4.219-8.333-3.668-5.427-8.699.687-4.103 4.982-12.92 8.102-17.042 1.114-3.821-6.475-10.906 5.776-16.789 5.781-3.907.002-11.068-8.851-13.365-2.883-.943 2.457 9.403 8.64 11.524 8.799 6.562.493 9.103-6.415 14.001-6.415 3.943 0 5.942 6.995 10.786 6.995 6.045 0 9.841-9.492 13.998-9.492 1.781 0 7.512 5.588 9.283 7.176 4.692 4.206 9.874 7.057 16.216 5.293m-500.44-.855c1.687-.378 11.416-2.366 11.549-4.456.091-1.423-10.912-3.759-12.106-3.894-3.126-.352-10.174 10.758.557 8.35m856.592-15.697c1.367-2.553.033-7.435-1.303-9.71-2.461-4.2 1.756-3.213 1.756-6.476 0-3.007-23.127-12.179-15.863-15.875 1.135-.577 17.119-2.96 11.283-7.481-3.225-2.498-17.879-5.875-21.748-5.228-6.018 1.006-4.406 12.424-4.73 16.313-.162 1.955-4.037 17.745 1.225 11.326 3.779-4.61 7.529-18.753 10.955-5.668.375 1.432 2.865 17.891.057 17.891 2.805 0 5.016-9.503 7.805-8.011 1.233.661 7.36 18.902 10.563 12.919m-845.479-.581c1.365-.168 11.346-2.106 10.896-5.174-1.548-10.554-33.273 7.932-10.896 5.174m916.583-.136c2.895-1.111-4.846-9.262-7.553-8.92-1.143.144-14.139 3.393-14.139 4.083 0 4.636 18.84 5.933 21.692 4.837m-410.821-7.923c4.955-3.596 18.951 3.878 9.514-5.979-2.029-2.118.002-11.894-4.646-5.778-4.234 5.573-9.559 5.467-15.35 3.01-7.604-3.228-3.773-19.954-10.602-2.13-1.701 4.456-7.758 5.107-11.473 4.107-7.98-2.152-4.311-10.833-8.666-14.442 1.711 1.42-11.806 22.165-20.361 7.676-3.491-5.917-9.412 4.776-14.404 4.776-3.752 0-8.282-6.417-8.367-6.401-2.202.421-1.217 8.853.023 10.093 4.202 4.203 11.087 2.596 14.765-.996 4.726-4.614 4.656 1.252 8.561 4.217 3.468 2.634 11.357 1.787 14.032-1.972 5.166-7.251 15.777 7.18 24.595 1.583 2.816-1.789 6.928-9.388 10.578-2.6 2.243 4.172 6.909 8.391 11.801 4.836m-500.388-6.446c1.438-.387 13.042-6.108 12.647-8.173-.569-2.956-12.703-.837-14.364.411-3.211 3.515-6.435 9.958 1.717 7.762m119.89-.303c4.176-4.617-9.234-7.432-11.943-4.723-3.903 3.905 9.141 7.821 11.943 4.723m779.506-2.01c.926-8.437-10.115-6.799-14.818-6.54-12.627.695 14.252 11.7 14.818 6.54m-387.031-13.263c2.707-2.624 6.156-6.702 6.762-10.588.025-.162.619-7.644-1.094-6.88-7.396 3.303-15.535 24.152-24.131 5.355-9.752-21.321-4.939 5.129-19.213 4.351-4.094-.224-11.822-5.516-11.822-10.162 0-8.534-9.884 7.056-10.082 7.169-7.404 4.263-10.771-3.883-13.753-8.542-2.933-4.583-6.004 5.972-9.188 7.434-3.141 1.441-9.884-.513-11.484.938-6.261 5.664 6.889 7.229 9.048 7.102 6.562-.394 10.542-9.556 15.555-.053 2.667 5.059 11.954 4.666 12.95-1.465 1.436-8.821 10.879 4.063 13.641 5.311 7.057 3.19 8.822-1.992 13.939-5.182 8.63-5.386 18.149 14.085 28.872 5.212m-437.777-.826c3.602-3.598.088-13.328 5.167-17.868 3.521-3.149 4.794 11.973 8.601 11.973-.619 0 4.662-28.154 3.104-29.447-2.282-1.893-26.167.946-28.512 3.29-3.154 3.153 18.017 1.185 16.576 5.492-1.889 5.644-20.953 7.171-20.345 9.731.501 2.114 5.164 2.612 3.453 4.934-1.845 2.503-6.438 6.504-4.521 10.229 1.335 2.594 7.009-3.66 9.39-2.497 1.746.855 4.568 6.684 7.087 4.163m814.695.073c3.182-5.144-9.783-12.607-14.822-8.393-4.584 3.833 13.421 10.663 14.822 8.393m-878.659-4.2c2.346-.598 9.109-1.646 9.109-5.08 0-11.302-23.867 8.836-9.109 5.08m864.389-15.487c.906-1.093-3.346-5.534-4.844-5.058-3.771 1.197 2.592 7.771 4.844 5.058m-852.175-2.496c12.034-3.724 2.391-9.273-2.371-5.883-6.035 4.297-4.023 7.861 2.371 5.883m494.877-.738c1.029-.546 5.074-4.609 4.061-5.831-1.039-1.252-5.16.723-6.939-.108-4.199-1.962-6.096-5.765-7.203-9.979-3.111-11.833-13.129 6.055-17.709 6.292-3.76.194-7.564-5.324-8.885-8.139-3.248-6.925-7.035 3.605-8.467 5.243-2.889 3.308-7.877 4.545-12.043 2.967-2.818-1.068-4.752-8.51-6.158-8.433-5.187.282-4.693 9.07-11.675 6.39-6.332-2.431-6.26-14.069-8.438-14.756-1.459-.46-8.833 13.552-9.01 15.244.155-1.49 6.104-1.468 7.614 1.5 2.58 5.07 4.845 6.582 10.457 6.582 3.652 0 4.724-5.496 7.978-5.496 4.921 0 8.929 6.357 14.306 6.373 4.814.015 8.527-6.397 12.844-5.808 5.775.788 6.152 6.325 13.553 4.618 2.861-.659 8.551-8.127 10.734-4.12 2.546 4.674 9.204 10.522 14.98 7.461m185.705-2.029c6.486-4.03 9.121-6.18 11.621-13.387 2.27-6.548 9.322-6.488 15.35-8.033 9.311-2.385 8.834-6.633 11.846-14.128 1.842-4.585 15.244-4.611 19.525-8.404 3.801-3.37 6.764-9.43 6.727-14.67-.098-12.915.195-5.997 11.877-10.059 7.477-2.6 12.029-12.089 13.854-19.192.609-2.38.928-5.484-1.656-6.82-6.086-3.146-5.465 4.368-6.422 7.757-2.02 7.146-8.625 13.476-15.99 14.791-11.941 2.133-3.678 1.587-8.414 10.998-6.404 12.73-8.705 16.818-22.803 18.384-4.266.474-3.67 11.823-6.812 15.291-5.664 6.252-11.73 1.171-18.814 2.637-2.27.468-3.275 13.903-7.191 16.803-2.986 2.212-20.594 1.885-20.775 2.36-2.761 7.171 15.248 7.432 18.077 5.672m-282.517-6.527c-.744-.808-1.137-.58-1.179.682.398.401 1.179-.051 1.179-.682m-201.537-16.519c4.691-5.238 11.608-8.941 16.501-14.569 5.034-5.79 6.71-14.141 10.509-20.667 6.973-11.984 2.694-28.229-5.146-38.632-6.88-9.13-15.683-20.099-29.289-16.776-13.718 3.344-26.368 10.778-38.539 18.105-.359.217-16.07 9.888-7.938 11.073 3.739.545 11.098-4.211 14.097-5.729 4.116-2.082 35.124-19.059 33.892-11.189-.522 3.345-13.664 8.595-16.505 10.709-4.999 3.72-9.475 8.022-14.603 11.615-1.625 1.139-11.071 7.614-3.95 8.09 6.306.422 14.824-8.174 19.848-11.349 6.38-4.032 30.27-26.086 33.874-10.051 1.685 7.501-24.861 22.062-31.532 25.166-2.405 1.12-13.588 6.821-9.757 10.18 5.032 4.412 15.159-6.459 18.883-9.227 6.679-4.965 14.979-8.695 21.176-14.139 5.768-5.063 12.438 3.917 8.259 8.444-3.882 4.205-9 5.618-13.409 9.095-2.362 1.863-11.102 9.937-13.625 9.937-7.435 0-9.654 16.231-4.017 12.343 3.875-2.672 27.099-26.229 30.796-22.007 9.225 10.537-19.35 26.921-23.734 33.458-2.088 3.111.36 10.417 4.209 6.12m267.261-.167c2.869-1.855 5.76-6.715 9.736-5.746 5.568 1.355 8.4 6.306 14.719 6.786 7.461.567 10.209-1.043 16.109-5.27 2.133-1.529 10.898-9.377 5.793-12.798 1.105.739-12.982 11.689-16.045 11.99-3.973.389-8.762 1.272-11.789-1.747-1.764-1.759-5.928-10.702-7.393-11.443-1.268-.641-6.209 8.904-8.977 9.519-4.004.89-10.164 1.852-13.736-.908-2.605-2.014-3.945-9.741-8.059-6.465-5.832 4.641-10.049 10.104-18.371 7.278-10.701-3.634-5.254-15.873-17.107-4.329-3.006 2.927-17.69-.575-17.397-1.049-2.677 4.329 14.122 12.196 19.287 6.864 6.641-6.852 12.177 4.294 18.678 6.25 8.532 2.568 15.321-11.059 19.567-5.874 3.711 4.526 8.475 11.151 14.985 6.942m201.427.105c4.896-6.22-11.482-19.067-12.059-17.569-1.538 4.011 10.024 20.149 12.059 17.569m11.875-13.553c2.943-4.494-18.551-26.501-19.816-24.938-5.186 6.405 16.721 29.662 19.816 24.938m-222.072-8.915c5.328-1.267 10.467-17.038 17.113-6.362 3.348 5.373 9.301 5.215 14.648 5.197 20.414-.073 24.459-16.76 23.73-33.72-.693-16.066-9.842-30.302-17.039-43.986-4.191-7.967-7.027-15.726-9.951-24.343-1.369-4.04-.596-31.285-7.502-17.031-7.434 15.345 7.182 36.047 14.381 49.537 7.027 13.17 20.139 34.596 13.715 50.392-4.264 10.487-17.404 12.256-27.086 8.543-4.023-1.543-8.555-6.038-12.66-6.785-5.344-.971-6.414 9.483-11.377 11.07-2.914.932-9.084 1.258-11.727-.708-2.842-2.111-6.551-10.471-9.707-10.974-2.548-.406-5.446 5.387-6.767 6.639-5.647 5.347-9.496-2.227-14.163-1.282-6.407 1.296 5.265 10.277 6.034 10.794 5.199 3.496 11.122.968 12.468-5.021 1.62-7.216 7.159-1.355 9.045 2.408 3.191 6.358 10.843 7.06 16.845 5.632m238.016-2.173c7.504-7.502-29.92-21.231-18.051-31.373 12.842-10.971 28.336 24.011 34.055 17.69 5.812-6.419-32.307-25.771-16.174-31.216 10.344-3.493 26.244 21.071 32.59 12.874-5.221-3.564-13.459-8.875-16.66-14.32-6.354-10.803 18.145-.4 20.645.832 2.783 1.372 6.014 5.115 9.227 5.146 5.445.053 3.225-3.953.75-6.087-7.691-6.637-18.242-11.472-28.475-11.525-15.533-.079-32.49 8.359-43.645 18.687-14.583 13.496 20.997 44.038 25.738 39.292m-552.679-47.465c5.733-2.907 11.003-11.7 18.088-11.7 6.41 0 13.702-13.077.548-8.307-5.709 2.07-14.894 12.304-20.811 12.304-8.927-.001-5.978 11.832 2.175 7.703m341.364-8.721c6.344-6.229-17.693-35.152-21.812-40.027-5.074-6.009-10.594-8.77-16.543-13.732-2.314-1.93-16.758-1.791-14.81 1.85 1.933 3.61 9.707 2.288 13.185 4.086 7.207 3.725 13.586 9.343 18.922 15.368 3.97 4.485 16.732 36.702 21.058 32.455m-353.93-2.952c4.132-2.511 30.134-15.889 12.487-13.265-4.761.708-10.569 3.998-14.341 6.885-5.481 4.196-4.895 10.481 1.854 6.38"/><g fill="#fcdd09"><path d="m584.915 90.528c-1.479-15.098-10.294-41.542-21.439-52.051-3.094-2.916-9.163-6.349-9.163-11.344 0-3.399 8.669-7.993 7.327-9.814-4.28-5.811-24.749-8.215-31.664-8.22-12.549-.009-22.184-3.776-35.112-.525-7.751 1.95-15.149 4.448-21.658 9.19-7.099 5.173-10.899 10.652-13.75 18.647-1.134 3.182-7.933 24.991-2.718 26.994 1.594.613 11.281-9.111 14.289-9.649 7.125-1.275 14.872-.826 22.038-.184 9.6.861 26.75 2.587 34.678 7.959 8.6 5.83 19.836 9.263 29.02 14.493 2.831 1.615 28.523 18.309 28.152 14.504"/><path d="m571.797 98.836c0-4.064-9.264-9.254-19.463-13.927l-5.636-2.5c-10.79-4.656-20.93-8.407-20.742-9.347-.217 1.084 20.019 20.718 22.189 22.2 2.575 1.758 23.652 7.034 23.652 3.574z"/><path d="m633.299 65.069c-2.223-3.129-16.803-12.492-17.945-12.818-8.103-2.314-15.38 13.139-12.818 24.675s19.568 19.639 30.125 17.625c3.422-.653 12.246-8.177 12.498-11.216.249-3.039-8.958-14.183-11.86-18.266zm.529 15.594c-4.471 4.183-12.75 3.779-17.33.048-4.008-3.263-5.935-10.184-4.199-15.104.646-1.834 3.805-7.406 6.1-7.192 1.104.103 5.639.635 10.117 4.566 4.834 4.242 9.602 11.947 9.912 13.307.599 2.617-3.99 3.805-4.6 4.375z"/><path d="m337.491 1023.261c.316-.124 4.996-1.025 4.996-1.748 0-2.002-7.606-5.583-7.157-11.304.365-4.66 4.502-11.668 8.468-14.102 14.601-8.964 1.188 23.796 1.188 24.842 0 3.08 13.929.61 15.589-.401 4.598-2.805 3.242-14.272 3.452-18.802.571-12.323-.543-30.997 6.009-41.782 10.496-17.278 7.239-28.708 29.403-31.247 15.359-1.762 29.723 8.862 44.718 7.53 2.612-.232 12.421-6.556 8.647-9.97-3.611-3.27-15.097-4.042-19.573-4.711-12.17-1.819 2.237-9.761 5.566-10.793 4.207-1.305 18.146 6.434 18.944 5.308 10.95-15.439-11.188-12.338-20.004-9.715-14.38 4.277-28.39 6.352-43.216 1.978-13.478-3.978 6.088-27.767 9.356-34.134 2.694-5.245.205-10.111 6.147-12.785 2.329-1.049 6.212-2.282 8.188-4.226 2.947-2.898.062-8.74 3.581-11.138 7.844-5.342 8.537-4.724 12.076-13.881 1.754-4.537 9.095-5.48 11.841-10.438 3.178-5.737 8.763-8.844 9.113-15.146.046-.829 1.864-20.633 2.422-20.418-3.199-1.228-12.625 4.29-15.84 5.812-4.939 2.336-12.872.272-16.853 4.008-9.336 8.763-14.924 25.839-21.779 36.753-2.775 4.417-6.423 8.84-8.689 13.53-2.201 4.559-11.133 15.026-11.133 19.812 0 6.523-15.113 29.94-20.708 30.541-26.786 2.863-54.594-8.309-80.766-10.42-5.446-.438-15.97-1.461-18.59 5.089-4.464 11.159 6.392.678 8.542-.286 3.582-1.605 16.197-2.416 18.742 1.388 2.826 4.221-13.711 12.479-16.303 13.452-4.511 1.694-13.669 3.677-9.881 11.535 3.368 6.982 10.786 6.464 15.55 1.525 12.707-13.177 21.326-5.431 36.714-8.062 5.155-.882 40.531-1.232 30.066 11.633-7.515 9.237-22.51 13.25-32.522 19.082-6.361 3.703-12.853 9.083-19.764 11.654-5.986 2.226-13.406 1.864-19.74 3.309-4.981 1.136-17.553 6.58-13.259 13.623 5.271 8.646 9.796.835 13.689-2.29 2.451-1.968 17.562-11.921 17.377-2.846-.158 7.741-11.513 11.336-13.846 17.437-.973 2.533 5.704 9.117 8.368 9.074 4.066-.066 7.512-7.275 8.918-10.158 6.823-13.983 18.774-22.776 32.279-30.007 8.602-4.605 31.947-25.383 25.941-2.261-3.211 12.364-7.896 28.351-15.52 38.685-5.214 7.069-24.24 35.396-5.583 36.396 1.613-.309 3.224-.619 4.836-.925"/><path d="m832.178 1042.192c2.598-1.388 5.021-3.495 7.215-5.432 3.135-2.765-2.531-6.964-.213-11.161 1.889-3.411-1.934-24.436 9.938-17.5 5.09 2.974 3.5 17.4.84 21.416-3.674 5.55 13.168 3.148 13.656-3.075.994-12.715-13.799-25.896-19.834-36.565-7.041-12.443-8.033-26.55-13.799-39.42-1.996-4.459-7.625-15.553-.389-17.178 7.002-1.572 18.09 8.789 23.604 12.751 13.127 9.436 23.412 20.311 32.152 33.991 4.309 6.745 4.424 14.979 8.512 21.64 3.078 5.016 9.51 4.365 13.488.804 6.098-5.461 2.42-4.545-.211-8.599-2.064-3.182-6.375-14.462-3.545-17.751 6.586-7.661 13.551 11.214 16.646 11.106 8.885-.308-.521-18.023-6.279-19.345-4.504-1.035-8.916-.137-13.059-2.626-3.908-2.353-6.807-6.376-10.863-8.429-7.547-3.82-14.316-11.082-20.682-16.64-1.889-1.647-23.312-12.496-14.201-17.015 9.922-4.918 38.066-1.262 48.371 4.181 5.918 3.127 12.297 13.122 19.566 12.389 7.322-.737 7.588-22.163 4.314-22.789-4.504-.861-7.428 10.5-16.141 5.135-3.4-2.099-23.324-5.54-9.104-12.798 4.521-2.309 12.996-1.265 17.51.801 4.143 1.895 11.131 5.99 8.986-2.425-3.787-14.854-25.686-7.296-35.338-2.426-9.799 4.945-28.119 5.2-39.156 5.597-12.967.464-31.719 4.076-40.248-7.851-7.529-10.53-11.727-23.636-17.564-35.007-10.752-20.927-19.047-44.212-28.379-65.929-2.818-6.564-7.553-13.226-9.576-20.003-.49-1.658-8.842-6.381-9.125-3.813-.727 6.573.891 13.881.887 20.53-.01 12.523 1.818 4.19 6.721 11.12 2.752 3.889-6.691 5.939-6.572 12.334.197 10.656 9.68 5.586 12.604 11.238 3.605 6.972-5.281 10.64 2.676 18.358 2.311 2.241 5.68 2.13 8.041 4.105 3.402 2.851-.891 8.669 1.146 12.305 1.949 3.477 7.764 3.188 9.289 6.05 1.871 3.495-.115 6.61.193 10.116.498 5.603 8.607 4.8 8.033 12.397 4.279 11.673 12.729 19.855-7.918 19.062-13.461-.518-26.256-3.689-39.465-5.518-8.012-1.107-39.814-3.319-26.529 14.564 5.836 7.861 5.846 24.621 18.242 19.94 9.277-3.502 17.154-9.692 27.385-10.481 7.711-.596 12.613-4.791 20.059-4.673 9.963.157 14.6.334 21.311 8.039 12.887 14.8 10.916 38.626 15.467 56.527 2.146 8.444 5.459 16.764 4.535 25.739-.488 4.756-6.979 29.591 6.803 22.214"/><path d="m234.09 925.716c2.831-6.24 4.268-10.222 11.574-12.898 6.054-2.22 14.331-7.54 5.843-15.145-5.078-4.549-14.206 1.719-17.118 6.081-1.978 2.964-10.628 24.228-2.269 24.103.657-.714 1.314-1.426 1.97-2.141"/><path d="m339.985 1063.482c1.771-2.135-1.488-14.158-.496-17.679.803-2.848 8.774-13.201 2.027-12.349-7.904 1-13.929-.225-16.091 9.254-1.164 5.104 9.974 26.297 14.56 20.774"/><path d="m257.124 1013.013c-.487-7.938-1.155-14.378 5.038-20.826 2.615-2.723 7.253-4.412 2.425-7.899-2.747-1.983-8.105-4.321-11.482-2.517-5.092 2.727-8.365 16.823-6.53 21.819 1.132 3.083 11.096 18.345 10.549 9.423"/><path d="m484.533 946.836c7.359-8.747-.638-38.812-14.749-29.312-10.02 6.745-.063 11.188 4.79 14.49 2.005 1.363 11.739 15.213 8.326 16.29.544-.49 1.088-.979 1.633-1.468"/><path d="m849.719 1074.185c10.447-2.899 16.277-35.997 4.598-30.897-2.32 1.013-6.729.514-8.545 2.328-1.053 1.053 2.131 12.281 2.197 14.366.154 5.216-5.739 16.284 1.75 14.203"/><path d="m927.643 1030.75c9.471-8.339 8.92-42.906-4.51-29.988-7.969 7.665-1.137 9.105 1.443 17.681 1.11 3.677-3.806 18.358 3.067 12.307"/><path d="m695.117 956.389c2.514-8.4 8.418-10.837 14.816-15.438 6.775-4.871-2.373-15.896-10.086-11.545-3.93 2.216-9.943 9.454-9.709 14.38.105 2.256.051 14.53 3.787 14.53.399-.644.794-1.287 1.192-1.927"/><path d="m963.119 939.955c2.836-5.217-1.889-12.752-3.635-17.35-1.268-3.33-13.811-17.142-18.355-14.334-4.602 2.84-2.184 17.688 4.232 18.316 3.932.384 19.643 9.895 17.758 13.368"/></g><path d="m728.418 932.512c-5.193-2.712-2.354-9.763.916-12.806 4.639-4.312 11.314-4.725 17.332-4.291 4.594.332 5.482 7.407 1.191 9.159-3.518 1.436-7.189-.127-9.605 3.966-1.957 3.321-6.084 5.93-9.834 3.972"/><path d="m565.217 353.917c-3.518 0-7.021 0-10.503 0v149.879h-152.588c.226 3.402.46 6.782.701 10.131h162.39c0-3.776 0-144.12 0-160.01z" fill="#fff"/><path d="m632.601 518.031c-1.174 0-2.128-.918-2.128-2.051v-162.063c-20.196 0-40.8 0-60.998 0v162.063c0 1.132-.955 2.051-2.13 2.051h-164.218c1.205 16.153 2.602 31.467 4.221 44.797.562 4.627 1.212 9.313 1.941 14.046h158.056c1.176 0 2.13.918 2.13 2.051v281.04c10.008 4.01 20.235 6.279 30.499 6.279 10.263 0 20.493-2.27 30.499-6.279v-281.04c0-1.133.954-2.051 2.128-2.051h158.058c.729-4.733 1.38-9.419 1.94-14.046 1.617-13.331 3.017-28.644 4.22-44.797z" fill="#fff"/><path d="m409.913 580.768c.557 3.429 1.15 6.876 1.789 10.344h140.908 2.104v261.611c3.466 1.997 6.966 3.828 10.503 5.429 0-19.689 0-273.284 0-277.172-4.08 0-150.287 0-155.178 0-.044-.075-.084-.14-.126-.212z" fill="#fff"/><path d="m789.905 580.979c-4.889 0-151.099 0-155.172 0v277.169c3.533-1.598 7.031-3.429 10.496-5.426v-261.611h2.108 140.908c.635-3.469 1.23-6.917 1.787-10.348-.044.075-.08.142-.127.216z" fill="#fff"/><path d="m645.229 501.766v-147.85c-3.481 0-6.982 0-10.496 0v160.01h162.387c.241-3.349.475-6.729.698-10.131h-152.589z" fill="#fff"/><path d="m649.442 353.917v145.82h148.644c4.068-63.497 5.463-133.162 5.691-145.82-1.758 0-72.369 0-154.335 0z" fill="#da121a"/><path d="m550.503 499.737c0-3.684 0-128.693 0-145.82-81.966 0-152.576 0-154.337 0 .23 12.658 1.628 82.323 5.695 145.82z" fill="#da121a"/><path d="m787.478 595.171c-8.114 0-134.076 0-138.035 0v255.021c28.218-17.642 53.513-47.258 71.171-75.645 29.32-47.138 54.656-115.917 66.864-179.376z" fill="#da121a"/><path d="m550.503 850.192c0-28.011 0-251.273 0-255.021-3.958 0-129.905 0-138.035 0 12.207 63.459 37.546 132.238 66.866 179.377 17.66 28.387 42.95 58.003 71.169 75.644z" fill="#da121a"/><path d="m805.92 349.857h-414.03l.033 2.059c.02 1.362 2.212 137.016 11.241 211.384 8.724 71.855 37.883 157.59 72.56 213.341 28.166 45.275 75.602 93.665 124.25 93.665 48.649 0 96.084-48.39 124.253-93.665 34.673-55.751 63.831-141.485 72.557-213.341 9.03-74.369 11.219-210.022 11.243-211.384l.031-2.059zm-8.8 164.07c-16.415 0-158.475 0-162.387 0 0-3.799 0-145.526 0-160.01h10.496v147.85 2.03h152.589c-.223 3.401-.457 6.781-.698 10.13zm.966-14.19c-17.728 0-144.834 0-148.644 0 0-3.696 0-129.384 0-145.82h154.335c-.228 12.658-1.623 82.323-5.691 145.82zm-247.583-145.82v145.82c-3.844 0-132.733 0-148.642 0-4.067-63.497-5.465-133.162-5.695-145.82zm-148.377 149.879h152.588v-149.879h10.503v160.01c-3.844 0-141.977 0-162.39 0-.241-3.349-.475-6.729-.701-10.131zm163.091 354.355c-3.537-1.601-7.037-3.432-10.503-5.429v-261.611h-143.013c-.639-3.467-1.231-6.915-1.789-10.344.042.073.082.138.126.212h155.178c.001 3.888.001 257.483.001 277.172zm-14.714-262.98v255.021c-28.219-17.642-53.51-47.258-71.169-75.645-29.32-47.139-54.659-115.918-66.866-179.377 8.13.001 134.077.001 138.035.001zm98.939 255.021c0-27.313 0-251.268 0-255.021h138.035c-12.208 63.459-37.544 132.238-66.864 179.377-17.658 28.387-42.953 58.003-71.171 75.644zm-2.104-259.081h-2.108v261.611c-3.465 1.997-6.963 3.828-10.496 5.426 0-17.583 0-273.262 0-277.169h155.172c.047-.074.083-.141.128-.216-.557 3.431-1.152 6.878-1.787 10.348zm145.261-28.282c-.561 4.627-1.212 9.313-1.94 14.046h-158.058c-1.174 0-2.128.918-2.128 2.051v281.04c-10.006 4.01-20.236 6.279-30.499 6.279-10.264 0-20.491-2.27-30.499-6.279v-281.04c0-1.133-.955-2.051-2.13-2.051h-158.056c-.729-4.733-1.379-9.419-1.941-14.046-1.619-13.331-3.016-28.644-4.221-44.797h164.218c1.176 0 2.13-.918 2.13-2.051v-162.064h60.998v162.063c0 1.132.954 2.051 2.128 2.051h164.218c-1.204 16.154-2.603 31.467-4.22 44.798z"/></svg>